<svg width="43" height="43" viewBox="0 0 43 43" fill="none" xmlns="http://www.w3.org/2000/svg">
<path fill-rule="evenodd" clip-rule="evenodd" d="M35.0106 5.60394C35.3462 5.59222 35.6727 5.71462 35.9183 5.9442C36.1639 6.17379 36.3085 6.49175 36.3203 6.82815L36.8518 22.0489C36.8635 22.3853 36.7415 22.7126 36.5125 22.9588C36.2835 23.2049 35.9663 23.3498 35.6307 23.3615C35.2951 23.3732 34.9686 23.2508 34.723 23.0213C34.4774 22.7917 34.3328 22.4737 34.3211 22.1373L33.8965 9.97844L9.1186 36.616C9.00507 36.738 8.86867 36.8364 8.71718 36.9056C8.56569 36.9748 8.40209 37.0134 8.23571 37.0192C8.06933 37.025 7.90343 36.9979 7.74749 36.9395C7.59155 36.881 7.44861 36.7924 7.32684 36.6785C7.20508 36.5647 7.10687 36.428 7.03781 36.2761C6.96876 36.1243 6.93022 35.9603 6.9244 35.7935C6.91858 35.6267 6.94558 35.4604 7.00387 35.3041C7.06216 35.1478 7.15059 35.0045 7.26412 34.8825L32.0446 8.24741L19.9148 8.67099C19.5792 8.68271 19.2527 8.56032 19.0071 8.33073C18.7615 8.10115 18.6169 7.78318 18.6052 7.44678C18.5934 7.11038 18.7155 6.7831 18.9445 6.53694C19.1735 6.29078 19.4906 6.14591 19.8262 6.13419L35.0106 5.60394Z" fill="white"/>
</svg>
