<svg width="18" height="18" viewBox="0 0 18 18" fill="none" xmlns="http://www.w3.org/2000/svg">
<path d="M1.08784 16.5949C1.08843 16.6376 1.09743 16.6797 1.11432 16.7189C1.13121 16.7581 1.15565 16.7936 1.18626 16.8234C1.21686 16.8531 1.25303 16.8766 1.29269 16.8923C1.33236 16.9081 1.37474 16.9159 1.41742 16.9153H16.587C16.6297 16.916 16.6721 16.9082 16.7119 16.8925C16.7516 16.8767 16.7878 16.8533 16.8184 16.8235C16.8491 16.7938 16.8736 16.7583 16.8905 16.719C16.9074 16.6798 16.9164 16.6376 16.917 16.5949V16.2124C16.9245 16.097 16.9399 15.522 16.5608 14.8857C16.3216 14.4845 15.9745 14.1382 15.5291 13.8557C14.9903 13.5141 14.3049 13.267 13.4758 13.1182C13.0548 13.059 12.6373 12.9778 12.2249 12.8749C11.1283 12.5949 11.0324 12.347 11.0316 12.3445C11.0253 12.32 11.016 12.2964 11.0041 12.2741C10.9949 12.2282 10.9728 12.0541 11.0153 11.5878C11.1228 10.4032 11.7583 9.70324 12.2687 9.14074C12.4295 8.96365 12.5816 8.79574 12.6987 8.63157C13.2041 7.92324 13.2508 7.11699 13.2528 7.06699C13.2547 6.97839 13.2425 6.89006 13.2166 6.80532C13.1666 6.65115 13.0737 6.55532 13.0053 6.48449C12.9892 6.46827 12.9735 6.4516 12.9583 6.43449C12.9533 6.42865 12.9399 6.41282 12.952 6.33324C12.9929 6.07686 13.0211 5.81863 13.0366 5.55949C13.0599 5.14199 13.0778 4.51782 12.9699 3.9099C12.9541 3.79379 12.9301 3.67892 12.8983 3.56615C12.7845 3.14782 12.602 2.79032 12.3483 2.49532C12.3045 2.4474 11.2428 1.32865 8.16075 1.09949C7.7345 1.06782 7.31325 1.0849 6.89825 1.10615C6.77552 1.10888 6.65338 1.12396 6.53367 1.15115C6.21534 1.23324 6.13034 1.4349 6.10825 1.54782C6.07117 1.73532 6.13617 1.88032 6.17909 1.97699C6.18534 1.99074 6.19325 2.00782 6.1795 2.05282C6.10825 2.16365 5.99534 2.26365 5.88075 2.35824C5.84742 2.38615 5.07492 3.05282 5.03242 3.92324C4.91784 4.58532 4.92617 5.61657 5.06159 6.32949C5.06992 6.36907 5.08117 6.4274 5.06242 6.46699C4.91659 6.5974 4.75159 6.74532 4.752 7.08282C4.75367 7.11699 4.80075 7.92282 5.30617 8.63157C5.42284 8.79574 5.57492 8.96324 5.73534 9.14032L5.73617 9.14074C6.24659 9.70324 6.882 10.4032 6.9895 11.5874C7.03159 12.0541 7.0095 12.2278 7.00075 12.2741C6.98866 12.2963 6.97928 12.32 6.97284 12.3445C6.97242 12.347 6.877 12.5941 5.78534 12.8737C5.15534 13.0349 4.53534 13.1174 4.51659 13.1195C3.71075 13.2557 3.0295 13.497 2.49159 13.8366C2.04784 14.117 1.69992 14.4645 1.45825 14.8687C1.07159 15.5145 1.082 16.1028 1.08742 16.2103V16.5949H1.08784Z" stroke="#0A0400" stroke-width="1.66667" stroke-linejoin="round"/>
</svg>
