<svg width="20" height="24" viewBox="0 0 20 24" fill="none" xmlns="http://www.w3.org/2000/svg">
<path d="M2.93512 11.3435H7.34109C7.7229 11.3435 8.10661 11.5313 8.29751 11.8122C8.48937 12.0939 8.48937 12.5626 8.39344 12.8443L6.09593 17.5318L15.5756 8.24982L10.7878 7.59335C10.405 7.59335 10.1173 7.31252 9.92636 7.03077C9.7345 6.74995 9.7345 6.3752 9.92636 6.09345L11.7452 2.15637H7.24516L2.93512 11.3435ZM2.07367 24C1.88277 24 1.59498 23.9061 1.40313 23.8131C0.924446 23.5313 0.829466 22.9688 1.02037 22.4992L5.42541 13.4999H1.1163C0.73354 13.4999 0.349826 13.313 0.158923 13.0312C-0.0329308 12.7495 -0.0329085 12.3747 0.0630182 11.9991L5.42541 0.655563C5.61726 0.280827 6.00001 0 6.47869 0H13.469C13.8518 0 14.2345 0.186907 14.4264 0.468658C14.6182 0.749479 14.6182 1.12516 14.5223 1.4999L12.6076 5.71871L18.1609 6.46819C18.5446 6.56211 18.9273 6.84387 19.0233 7.21861C19.1182 7.59335 19.0232 8.06199 18.7355 8.34374L2.84014 23.7192C2.64829 23.9061 2.3605 24 2.07367 24Z" fill="#01060E"/>
</svg>
