<svg width="16" height="18" viewBox="0 0 16 18" fill="none" xmlns="http://www.w3.org/2000/svg">
<path d="M3.58333 8.16797H5.25V9.83463H3.58333V8.16797ZM15.25 4.0013V15.668C15.25 16.5846 14.5 17.3346 13.5833 17.3346H1.91667C1.47464 17.3346 1.05072 17.159 0.738155 16.8465C0.425595 16.5339 0.25 16.11 0.25 15.668L0.258333 4.0013C0.258333 3.08464 0.991667 2.33464 1.91667 2.33464H2.75V0.667969H4.41667V2.33464H11.0833V0.667969H12.75V2.33464H13.5833C14.5 2.33464 15.25 3.08464 15.25 4.0013ZM1.91667 5.66797H13.5833V4.0013H1.91667V5.66797ZM13.5833 15.668V7.33463H1.91667V15.668H13.5833ZM10.25 9.83463H11.9167V8.16797H10.25V9.83463ZM6.91667 9.83463H8.58333V8.16797H6.91667V9.83463Z" fill="#060404"/>
</svg>
