<svg width="42" height="40" viewBox="0 0 42 40" fill="none" xmlns="http://www.w3.org/2000/svg">
<path d="M20.1178 17.3147C18.5333 17.3147 17.0997 18.676 17.0997 20.3394C17.0997 21.9271 18.4579 23.3633 20.1178 23.3633C21.7778 23.3633 23.1362 22.0029 23.1362 20.3394C23.1362 18.676 21.7778 17.3147 20.1178 17.3147ZM20.1178 25.1025C17.5524 25.1025 15.3643 22.9104 15.3643 20.3394C15.3643 19.0532 15.8923 17.8442 16.7976 16.9367C17.7033 16.0293 18.9107 15.4998 20.1178 15.4998C22.759 15.4998 24.8717 17.617 24.8717 20.2637C24.8717 21.5491 24.3434 22.6831 23.4378 23.5906C22.6078 24.6488 21.4007 25.1025 20.1178 25.1025Z" fill="#0145AC"/>
<path d="M20.1174 15.5761C20.7968 15.5761 21.4002 15.7268 22.0034 15.9541L23.9657 7.86329H16.42L18.3817 15.8783C18.9103 15.7269 19.5139 15.5761 20.1174 15.5761ZM22.5318 18.147C22.3058 18.147 22.1546 18.0713 22.0034 17.9955C21.4758 17.6176 20.7968 17.3911 20.1174 17.3911C19.4383 17.3911 18.7594 17.6176 18.3065 17.9955C18.08 18.147 17.7783 18.2228 17.4763 18.147C17.1744 18.0713 16.9483 17.8448 16.9483 17.5418L14.4582 7.25806C14.383 7.03157 14.4582 6.72932 14.609 6.50208C14.7602 6.27558 15.0618 6.19985 15.2881 6.19985H25.0217C25.3241 6.19985 25.5501 6.35058 25.7013 6.50208C25.8517 6.72932 25.9273 6.95582 25.8517 7.25806L23.3618 17.5418C23.2869 17.8448 23.0602 18.0713 22.8342 18.147C22.7586 18.147 22.6074 18.147 22.5318 18.147Z" fill="#0145AC"/>
<path d="M23.0614 24.1187L29.0224 29.8651L32.7951 23.287L24.8725 20.9425C24.7969 21.5478 24.5709 22.1523 24.2685 22.6818C23.9669 23.287 23.5141 23.74 23.0614 24.1187ZM29.2484 32.1338C29.0224 32.1338 28.7964 32.0581 28.6452 31.9066L21.0239 24.5725C20.798 24.3452 20.7222 24.043 20.798 23.74C20.8731 23.4378 21.0998 23.2112 21.3258 23.0597C21.9298 22.8333 22.4574 22.3795 22.7597 21.7743C22.7597 21.7743 22.7597 21.7743 22.7597 21.6985C23.1369 21.1698 23.2125 20.4888 23.1369 19.8086C23.0614 19.5056 23.2125 19.2033 23.4385 18.9769C23.6653 18.7496 23.9669 18.6746 24.2685 18.8254L34.3794 21.7743C34.6062 21.8501 34.8322 22.0773 34.9834 22.3038C35.1346 22.531 35.059 22.8333 34.9078 23.0597L30.0035 31.6801C29.8524 31.9073 29.6256 32.058 29.3996 32.1338C29.324 32.1338 29.2484 32.1338 29.2484 32.1338Z" fill="#0145AC"/>
<path d="M7.4421 23.287L11.2145 29.8651L17.1755 24.1187C16.6475 23.74 16.2703 23.287 15.9687 22.6818C15.6666 22.1523 15.4401 21.5478 15.3649 20.9425L7.4421 23.287ZM11.0639 32.1338C10.9886 32.1338 10.9886 32.1338 10.9128 32.1338C10.6111 32.058 10.3848 31.9066 10.3091 31.6801L5.40472 23.2112C5.25392 22.9847 5.25392 22.6818 5.32928 22.4553C5.40472 22.228 5.63134 22.0015 5.93302 21.9258L16.0437 18.9768C16.3458 18.9011 16.6475 18.9769 16.874 19.1276C17.1003 19.2791 17.1755 19.6571 17.1755 19.9593C17.0252 20.6403 17.1754 21.2455 17.5531 21.85C17.5531 21.85 17.5531 21.8501 17.5531 21.9258C17.8549 22.531 18.3828 22.9847 18.9868 23.2112C19.2885 23.2862 19.4394 23.5893 19.515 23.8915C19.5902 24.1937 19.515 24.4967 19.2885 24.7232L11.6674 32.058C11.5165 32.058 11.2902 32.1338 11.0639 32.1338Z" fill="#0145AC"/>
<path d="M20.0427 2.42004C10.3845 2.42004 2.31046 10.6624 2.31046 20.4159C2.31046 30.0951 10.4602 38.1859 20.0427 38.1859C29.7763 38.2609 38.0013 30.0951 38.0013 20.4916C38.0013 17.3919 37.1713 14.3672 35.6618 11.7205L31.0591 16.3329C30.7575 16.6352 30.3047 16.7109 29.9275 16.4087C29.5503 16.1815 29.4747 15.7277 29.6251 15.3497L32.4174 9.22535H30.2291C29.9275 9.22535 29.7007 9.07389 29.4747 8.8474C29.3235 8.62015 29.2479 8.31789 29.3991 8.01564L30.2291 5.74695C27.2864 3.554 23.7405 2.42004 20.0427 2.42004ZM20.0427 40.0001C17.4771 40.0001 14.9117 39.4714 12.4973 38.4124C10.1582 37.4292 8.12084 35.993 6.30978 34.178C4.49872 32.3638 3.065 30.2459 2.08452 27.9772C1.028 25.5577 0.5 23.0625 0.5 20.4159C0.5 15.199 2.53708 10.2086 6.23464 6.42794C8.0451 4.61298 10.1582 3.17602 12.4218 2.19354C14.8363 1.13457 17.3265 0.605071 19.9669 0.605071C24.2681 0.605071 28.3431 1.96628 31.8135 4.61297C32.1158 4.83946 32.2663 5.29321 32.1158 5.59545L31.5119 7.25892H33.8506C34.153 7.25892 34.4546 7.41042 34.6058 7.63692C34.7562 7.86416 34.7562 8.24216 34.6814 8.4694L33.323 11.4183L35.2846 9.45185C35.4357 9.3011 35.7373 9.14961 35.9641 9.22535C36.1901 9.22535 36.4917 9.37685 36.6429 9.60335C38.6801 12.7788 39.8124 16.4844 39.8124 20.2651C39.8124 22.836 39.284 25.407 38.2273 27.8264C37.2461 30.1701 35.8129 32.2116 34.0018 34.0265C30.2291 37.9587 25.2492 40.0001 20.0427 40.0001Z" fill="#0145AC"/>
<path d="M31.5116 7.40959H33.8503C34.1527 7.40959 34.4543 7.56109 34.6055 7.78758C34.7559 8.01483 34.7559 8.39281 34.681 8.6193L33.3227 11.5682L38.8309 6.04838L35.8882 5.59462C35.5866 5.51962 35.3598 5.36812 35.2087 5.14163C35.0582 4.91438 35.0582 4.61217 35.2087 4.30918L36.567 1.58749H33.6999L31.5116 7.40959ZM30.4556 16.5586C30.3044 16.5586 30.0776 16.4836 29.9272 16.4079C29.55 16.1806 29.4744 15.7269 29.6248 15.3489L32.4171 9.22452H30.2288C29.9272 9.22452 29.7004 9.07306 29.4744 8.84656C29.3232 8.61932 29.2476 8.31705 29.3988 8.01481L32.2659 0.528509C32.4171 0.226266 32.7187 -0.000250229 33.0967 -0.000250229H37.9254C38.227 -0.000250229 38.5286 0.150499 38.6798 0.377743C38.8309 0.604238 38.8309 0.982234 38.7553 1.20873L37.3222 4.15841L40.7925 4.6879C41.0948 4.7629 41.3965 4.9894 41.4713 5.29239C41.5476 5.59464 41.4713 5.97338 41.2453 6.19988L31.0588 16.2564C30.9076 16.4836 30.6816 16.5586 30.4556 16.5586Z" fill="#0145AC"/>
</svg>
