<svg width="38" height="40" viewBox="0 0 38 40" fill="none" xmlns="http://www.w3.org/2000/svg">
<path d="M5.89655 22.6471C9.24521 23.8235 13.977 24.4853 19 24.4853C23.7318 24.4853 28.2452 23.8971 31.5939 22.7941C34.5057 21.8383 36.3257 20.5883 36.3257 19.4118C36.3257 18.9706 36.1073 18.603 35.7433 18.3089C35.4521 18.4559 35.1609 18.5295 34.7969 18.5295C33.705 18.5295 32.8314 17.6471 32.8314 16.4707C29.4828 15.1471 24.387 14.3383 19 14.3383C8.29885 14.3383 1.74713 17.2795 1.74713 19.4118C1.74713 19.7059 1.89272 20.0736 2.03831 20.2942C2.4023 20 2.91188 19.853 3.42146 19.853C4.8046 19.853 5.96935 21.0294 5.96935 22.4265C5.89655 22.5736 5.89655 22.5736 5.89655 22.6471ZM19 26.25C13.4674 26.25 8.22605 25.4412 4.659 23.9706C4.22222 23.8235 4.00383 23.3088 4.14943 22.8677C4.14943 22.7941 4.22222 22.6471 4.22222 22.5C4.22222 22.0589 3.85824 21.6177 3.34866 21.6177C3.05747 21.6177 2.83908 21.7647 2.69349 21.9853C2.54789 22.2059 2.3295 22.353 2.11111 22.353C1.89272 22.353 1.60153 22.2794 1.45594 22.1324C0.509579 21.3236 0 20.3677 0 19.4118C0 15.0001 9.75479 12.6472 18.9272 12.6472C24.9693 12.6472 30.5019 13.603 34.069 15.2207C34.2874 15.2942 34.4329 15.5148 34.5057 15.7354C34.5785 15.956 34.5785 16.1765 34.5057 16.3971C34.5057 16.3971 34.5057 16.4707 34.5057 16.5442C34.5057 16.6912 34.6513 16.8383 34.7969 16.8383C34.8697 16.8383 34.9425 16.7648 35.0153 16.6912C35.1609 16.4707 35.3793 16.3236 35.5977 16.3236C35.8161 16.2501 36.1073 16.3236 36.2529 16.4707C37.7088 17.5736 38 18.6765 38 19.4118C38 21.3971 35.9617 23.1618 32.1034 24.4118C28.5364 25.5882 23.9502 26.25 19 26.25Z" fill="#0145AC"/>
<path d="M16.5974 4.33835C15.0687 7.64715 14.1223 13.3824 14.1223 19.4853C14.1223 24.3382 14.7047 28.9705 15.7239 32.4264C16.5246 34.9999 17.3982 36.3969 18.1262 36.9852C18.4173 36.0293 19.2909 35.3675 20.3101 35.3675C20.5285 35.3675 20.8196 35.4411 21.038 35.5146C22.7852 32.4264 23.8771 26.3235 23.8771 19.5588C23.8771 14.6324 23.2947 10.0736 22.2756 6.61775C21.1836 3.01483 19.8733 1.76484 18.9997 1.76484C18.9269 1.76484 18.7813 1.76484 18.7085 1.83837C18.7813 1.98543 18.7813 2.20602 18.7813 2.35307C18.7813 3.45601 17.9078 4.41188 16.8158 4.41188C16.6702 4.33835 16.6702 4.33835 16.5974 4.33835ZM18.9269 38.9705C16.9614 38.8969 15.2871 36.8381 14.1223 32.8676C13.0304 29.2646 12.448 24.4853 12.448 19.4853C12.448 12.7206 13.6127 6.32363 15.4327 2.9413C15.6511 2.57366 16.1606 2.35307 16.5246 2.57366C16.5974 2.64719 16.6702 2.64719 16.743 2.64719C16.8886 2.64719 17.0342 2.50013 17.0342 2.35307C17.0342 2.27954 16.9614 2.20602 16.9614 2.13249C16.743 1.98543 16.6702 1.76484 16.6702 1.47073C16.6702 1.17661 16.743 0.956025 16.9614 0.808967C17.6166 0.294265 18.2718 0.000149488 18.9269 0.000149488C20.8924 0.000149488 22.5668 2.05896 23.8043 6.02952C24.8963 9.63243 25.5514 14.4118 25.5514 19.4853C25.5514 27.2058 24.1683 33.9705 21.9844 37.0587C21.8388 37.2793 21.6204 37.4264 21.3292 37.4264C21.1108 37.4264 20.8196 37.3528 20.6741 37.2058C20.6013 37.1322 20.4557 37.0587 20.3101 37.0587C19.9461 37.0587 19.7277 37.3528 19.7277 37.7205C19.7277 37.794 19.7277 37.8675 19.8005 38.0146C19.8733 38.3087 19.8005 38.5293 19.6549 38.7499C19.4365 38.8969 19.2181 38.9705 18.9269 38.9705Z" fill="#0145AC"/>
<path d="M29.9923 6.47138C26.862 6.47138 20.8926 10.3684 15.5057 15.8831C7.93479 23.6771 5.3141 30.5889 6.77004 32.0594C6.98843 32.3536 7.42521 32.4271 8.00758 32.4271C11.1379 32.4271 17.0344 28.53 22.4942 23.0154C25.8428 19.5595 28.6091 15.8831 30.2107 12.6478C31.885 9.26548 31.885 7.42726 31.2298 6.83902C30.9386 6.61844 30.5746 6.47138 29.9923 6.47138ZM8.00758 34.1918C6.98843 34.1918 6.18766 33.8977 5.60529 33.3094C4.22214 31.9124 4.51333 29.1918 6.33326 25.5154C8.00758 22.133 10.8467 18.3095 14.3409 14.7801C20.0919 8.8243 26.4252 4.85374 29.9923 4.85374C31.0114 4.85374 31.8122 5.14786 32.3946 5.73609C33.7777 7.13314 33.4865 9.85371 31.6666 13.5302C29.9923 16.9125 27.1532 20.736 23.6589 24.3389C20.8198 27.2801 17.8352 29.7065 15.0689 31.4712C13.1034 32.7212 10.2643 34.1918 8.00758 34.1918Z" fill="#0145AC"/>
<path d="M8.00726 6.47138C7.42489 6.47138 7.0609 6.61844 6.76972 6.83902C6.18734 7.42726 6.11454 9.33901 7.78887 12.6478C9.39041 15.8831 12.1567 19.5595 15.5053 23.0154C20.8923 28.53 26.8617 32.4271 29.9919 32.4271C30.5743 32.4271 30.9383 32.28 31.2295 32.0594C32.6854 30.5889 30.0647 23.6771 22.4939 15.8831C17.0341 10.3684 11.0647 6.47138 8.00726 6.47138ZM29.9919 34.1918C26.3521 34.1918 20.0916 30.2212 14.3406 24.2654C10.8463 20.6625 8.00726 16.839 6.33293 13.4566C4.44021 9.78018 4.22182 7.05961 5.60497 5.66256C6.18734 5.07433 6.98811 4.78022 8.00726 4.78022C10.264 4.78022 13.103 6.25079 15.0686 7.50078C17.8349 9.26548 20.8195 11.7655 23.6586 14.6331C27.1529 18.236 29.9919 22.0595 31.6663 25.3683C33.559 29.0447 33.7774 31.7653 32.3942 33.1624C31.8119 33.8977 31.0111 34.1918 29.9919 34.1918Z" fill="#0145AC"/>
<path d="M16.7431 1.98545C16.5975 1.98545 16.4519 2.13251 16.4519 2.27957C16.4519 2.42663 16.5975 2.57369 16.7431 2.57369C16.8887 2.57369 17.0343 2.42663 17.0343 2.27957C17.0343 2.13251 16.8887 1.98545 16.7431 1.98545ZM16.7431 4.33838C15.6512 4.33838 14.7776 3.45603 14.7776 2.27957C14.7776 1.17664 15.6512 0.220761 16.7431 0.220761C17.8351 0.220761 18.7086 1.10311 18.7086 2.27957C18.7086 3.3825 17.8351 4.33838 16.7431 4.33838Z" fill="#0145AC"/>
<path d="M34.7966 16.2503C34.651 16.2503 34.5054 16.3974 34.5054 16.5445C34.5054 16.6915 34.651 16.8386 34.7966 16.8386C34.9422 16.8386 35.0878 16.6915 35.0878 16.5445C35.0878 16.3974 34.9422 16.2503 34.7966 16.2503ZM34.7966 18.6033C33.7046 18.6033 32.8311 17.7209 32.8311 16.5445C32.8311 15.368 33.7046 14.4857 34.7966 14.4857C35.8885 14.4857 36.7621 15.368 36.7621 16.5445C36.7621 17.7209 35.8885 18.6033 34.7966 18.6033Z" fill="#0145AC"/>
<path d="M20.31 37.0587C19.946 37.0587 19.7276 37.3528 19.7276 37.7205C19.7276 38.0881 19.946 38.3822 20.31 38.3822C20.6012 38.3822 20.8923 38.0881 20.8923 37.7205C20.8923 37.3528 20.6012 37.0587 20.31 37.0587ZM20.31 39.9999C19.0724 39.9999 17.9805 38.9705 17.9805 37.647C17.9805 36.3234 18.9996 35.294 20.31 35.294C21.5475 35.294 22.6395 36.397 22.6395 37.647C22.6395 38.9705 21.5475 39.9999 20.31 39.9999Z" fill="#0145AC"/>
<path d="M3.34863 21.6916C2.91185 21.6916 2.54786 22.0593 2.54786 22.574C2.54786 23.0152 2.91185 23.4563 3.34863 23.4563C3.78541 23.4563 4.22219 23.0887 4.22219 22.574C4.22219 22.0593 3.85821 21.6916 3.34863 21.6916ZM3.34863 25.074C1.96549 25.074 0.873535 23.8975 0.873535 22.5005C0.873535 21.1034 1.96549 19.927 3.34863 19.927C4.73177 19.927 5.89652 21.1034 5.89652 22.5005C5.89652 23.8975 4.80457 25.074 3.34863 25.074Z" fill="#0145AC"/>
<path d="M18.9995 17.9418C18.1987 17.9418 17.4707 18.6771 17.4707 19.4859C17.4707 20.3682 18.1259 21.1035 18.9995 21.1035C19.8002 21.1035 20.5282 20.3682 20.5282 19.4859C20.5282 18.6035 19.8002 17.9418 18.9995 17.9418ZM18.9995 22.7947C17.2523 22.7947 15.7964 21.3241 15.7964 19.4859C15.7964 17.7212 17.2523 16.2506 18.9995 16.2506C20.7466 16.2506 22.2025 17.7212 22.2025 19.4859C22.2025 21.3241 20.7466 22.7947 18.9995 22.7947Z" fill="#0145AC"/>
<path d="M3.42137 35.7357C3.20298 35.7357 2.98459 35.6622 2.839 35.5151C2.6934 35.3681 2.62061 35.1475 2.62061 34.9269C2.62061 34.7063 2.6934 34.4857 2.839 34.3387C2.98459 34.1916 3.20298 34.1181 3.42137 34.1181C3.63976 34.1181 3.85815 34.1916 4.00375 34.3387C4.14934 34.4857 4.22214 34.7063 4.22214 34.9269C4.22214 35.1475 4.14934 35.3681 4.00375 35.5151C3.85815 35.6622 3.63976 35.7357 3.42137 35.7357Z" fill="#0145AC"/>
<path d="M9.31741 37.426C9.09902 37.426 8.88063 37.3525 8.73504 37.2054C8.58944 37.0584 8.44385 36.8378 8.44385 36.6172C8.44385 36.3966 8.51664 36.176 8.66224 36.029C8.80783 35.8819 9.02622 35.8084 9.24461 35.8084C9.463 35.8084 9.6814 35.8819 9.82699 36.029C9.97258 36.176 10.0454 36.3966 10.0454 36.6172C10.0454 36.8378 9.97258 37.0584 9.82699 37.2054C9.75419 37.3525 9.5358 37.426 9.31741 37.426Z" fill="#0145AC"/>
<path d="M9.31741 1.69141C9.09902 1.69141 8.88063 1.61788 8.73504 1.47082C8.51664 1.25023 8.44385 1.02965 8.44385 0.80906C8.44385 0.588473 8.51664 0.367886 8.66224 0.220829C8.80783 0.0737708 9.02622 0.000241876 9.24461 0.000241876C9.463 0.000241876 9.6814 0.0737708 9.82699 0.220829C9.97258 0.367886 10.0454 0.588473 10.0454 0.80906C10.0454 1.02965 9.97258 1.25023 9.82699 1.39729C9.75419 1.61788 9.5358 1.69141 9.31741 1.69141Z" fill="#0145AC"/>
<path d="M3.42137 5.07373C3.20298 5.07373 2.98459 5.0002 2.839 4.85314C2.6934 4.70609 2.62061 4.4855 2.62061 4.26491C2.62061 4.04433 2.6934 3.82374 2.839 3.67668C2.98459 3.52962 3.20298 3.45609 3.42137 3.45609C3.63976 3.45609 3.85815 3.52962 4.00375 3.67668C4.14934 3.82374 4.22214 4.04433 4.22214 4.26491C4.22214 4.4855 4.14934 4.70609 4.00375 4.85314C3.85815 5.0002 3.63976 5.07373 3.42137 5.07373Z" fill="#0145AC"/>
<path d="M35.4516 9.33777C35.2333 9.33777 35.0149 9.26424 34.8693 9.11718C34.7237 8.97012 34.6509 8.74954 34.6509 8.52895C34.6509 8.30836 34.7237 8.08778 34.8693 7.94072C35.0149 7.79366 35.2333 7.72013 35.4516 7.72013C35.67 7.72013 35.8884 7.79366 36.034 7.94072C36.1796 8.08778 36.2524 8.30836 36.2524 8.52895C36.2524 8.74954 36.1796 8.97012 36.034 9.11718C35.8884 9.26424 35.67 9.33777 35.4516 9.33777Z" fill="#0145AC"/>
<path d="M37.126 30.662C36.9076 30.662 36.6892 30.5885 36.5436 30.4414C36.398 30.2943 36.3252 30.0738 36.3252 29.8532C36.3252 29.6326 36.398 29.412 36.5436 29.2649C36.6892 29.1179 36.9076 29.0444 37.126 29.0444C37.3444 29.0444 37.5627 29.1179 37.7083 29.2649C37.8539 29.412 37.9267 29.6326 37.9267 29.8532C37.9267 30.0738 37.8539 30.2943 37.7083 30.4414C37.5627 30.5885 37.3444 30.662 37.126 30.662Z" fill="#0145AC"/>
<path d="M29.5554 37.426C29.337 37.426 29.1186 37.3525 28.973 37.2054C28.8274 37.0584 28.7546 36.8378 28.7546 36.6172C28.7546 36.3966 28.8274 36.176 28.973 36.029C29.1186 35.8819 29.337 35.8084 29.5554 35.8084C29.7738 35.8084 29.9922 35.8819 30.1378 36.029C30.2834 36.176 30.3562 36.3966 30.3562 36.6172C30.3562 36.8378 30.2834 37.0584 30.1378 37.2054C29.9922 37.3525 29.7738 37.426 29.5554 37.426Z" fill="#0145AC"/>
<path d="M19 30.662C18.7816 30.662 18.5632 30.5885 18.4176 30.4414C18.272 30.2943 18.1992 30.0738 18.1992 29.8532C18.1992 29.6326 18.272 29.412 18.4176 29.2649C18.5632 29.1179 18.7816 29.0444 19 29.0444C19.2184 29.0444 19.4368 29.1179 19.5824 29.2649C19.728 29.412 19.8008 29.6326 19.8008 29.8532C19.8008 30.0738 19.728 30.2943 19.5824 30.4414C19.4368 30.5885 19.2184 30.662 19 30.662Z" fill="#0145AC"/>
</svg>
