<svg width="40" height="40" viewBox="0 0 40 40" fill="none" xmlns="http://www.w3.org/2000/svg">
<path d="M31.092 28.0771C30.9458 28.0771 30.8004 28.0034 30.6534 27.9304C30.2887 27.6355 30.1432 27.1202 30.4356 26.7523C30.508 26.6785 30.508 26.6055 30.5811 26.5318C30.9458 25.9427 31.6761 24.839 32.2594 23.7345C33.1344 21.9687 32.9159 21.3796 32.9159 21.3059C32.9159 21.2329 32.8435 21.1592 32.5511 21.0854C32.1132 21.0117 31.7485 20.5701 31.894 20.1285C32.0402 19.6868 32.4049 19.3189 32.8435 19.4664C33.8647 19.6131 34.3018 20.2022 34.5211 20.6438C35.2514 22.3366 33.573 25.2069 32.0402 27.5618C31.9678 27.6355 31.9678 27.7092 31.894 27.7822C31.6761 27.9304 31.3837 28.0771 31.092 28.0771Z" fill="#0145AC"/>
<path d="M26.7131 33.2281H33.4997C33.7183 30.579 34.7402 29.1804 35.6883 27.9299C36.4916 26.8992 37.1481 25.9422 37.586 24.3232C37.8776 23.2194 37.586 20.2017 36.8564 17.2578C35.9807 13.4305 34.9595 11.8851 34.594 11.8114C34.5209 11.8114 34.5209 11.8114 34.4485 11.8114C33.9376 11.8114 33.3535 12.7684 33.208 13.5042C32.9156 15.2708 33.4997 18.5089 34.2292 20.3492C34.3754 20.7171 34.2292 21.1587 33.9376 21.3792C33.6452 21.6004 33.208 21.6003 32.9156 21.3054C32.9156 21.3054 32.7694 21.2325 32.5508 21.1587C32.4778 21.1587 32.4778 21.1587 32.4047 21.1587C31.6758 21.1587 30.4354 22.115 28.9025 24.7648C27.7351 26.8255 26.8593 29.1804 26.7131 30.2111C26.7862 30.5053 26.7131 32.1244 26.7131 33.2281ZM34.3754 34.9209H25.9112C25.4726 34.9209 25.1079 34.6267 25.0355 34.1851C24.9617 33.3755 25.0355 30.5053 25.1079 29.9169C25.2533 28.5183 26.276 25.9422 27.5158 23.8815C28.6108 21.9683 30.3615 19.6126 32.2592 19.4659C31.6759 17.4052 31.3835 14.9029 31.6759 13.1363C31.8937 11.8852 32.9887 10.0456 34.594 10.0456C34.8125 10.0456 34.9595 10.0456 35.1773 10.1193C36.4916 10.4872 37.6583 12.6947 38.6079 16.7424C39.2643 19.5389 39.7746 23.072 39.3367 24.6911C38.8257 26.6781 37.95 27.8555 37.1481 28.96C36.1261 30.2849 35.2511 31.4623 35.2511 34.1114C35.1773 34.553 34.8125 34.9209 34.3754 34.9209Z" fill="#0145AC"/>
<path d="M25.9111 38.3072H35.1772V34.9216H25.9111V38.3072ZM36.053 40H25.0354C24.5968 40 24.1597 39.6321 24.1597 39.1167V34.039C24.1597 33.5974 24.5244 33.1558 25.0354 33.1558H36.053C36.4916 33.1558 36.9287 33.5237 36.9287 34.039V39.1167C36.9287 39.6321 36.4916 40 36.053 40Z" fill="#0145AC"/>
<path d="M27.589 37.4238C27.3697 37.4238 27.1519 37.3501 27.0049 37.2034C26.8595 37.0559 26.7864 36.8354 26.7864 36.6143C26.7864 36.3938 26.8595 36.1734 27.0049 36.0259C27.1519 35.8785 27.3697 35.8047 27.589 35.8047C27.8083 35.8047 28.0269 35.8785 28.1731 36.0259C28.3193 36.1734 28.3917 36.3938 28.3917 36.6143C28.3917 36.8354 28.3193 37.0559 28.1731 37.2034C28.0269 37.3501 27.8083 37.4238 27.589 37.4238Z" fill="#0145AC"/>
<path d="M8.90797 28.0771C8.6163 28.0771 8.39775 27.9304 8.17917 27.7092C8.10608 27.6355 8.10607 27.5618 8.03298 27.4888C6.50009 25.2069 4.82243 22.3366 5.55196 20.5701C5.77126 20.1284 6.20843 19.5394 7.23036 19.3926C7.66822 19.3189 8.10608 19.6131 8.17917 20.0547C8.25155 20.4964 7.95987 20.938 7.52201 21.0117C7.23034 21.0855 7.15724 21.1592 7.15724 21.2329C7.08414 21.3059 6.93867 21.9687 7.8144 23.6608C8.39774 24.7653 9.05492 25.869 9.49206 26.4581C9.56516 26.5318 9.63825 26.6055 9.63825 26.6785C9.93065 27.0471 9.78373 27.6355 9.41968 27.8559C9.20039 28.0034 9.05489 28.0771 8.90797 28.0771Z" fill="#0145AC"/>
<path d="M6.50033 33.2281H13.2869C13.2869 32.1981 13.2145 30.5053 13.2145 30.1374C13.0683 29.1067 12.265 26.8255 11.0245 24.6911C9.49231 22.042 8.2518 21.085 7.52227 21.085C7.44917 21.085 7.44917 21.085 7.37607 21.085C7.1575 21.1587 7.0113 21.2324 7.0113 21.2324C6.71963 21.5266 6.2825 21.5266 5.99011 21.3054C5.69844 21.085 5.55222 20.6434 5.69842 20.2755C6.42795 18.3622 7.01132 15.197 6.71965 13.4305C6.57418 12.6947 5.9901 11.7377 5.47914 11.7377C5.40677 11.7377 5.40676 11.7377 5.33294 11.7377C4.96817 11.8851 4.02009 13.3575 3.14436 17.184C2.4872 20.128 2.12315 23.1457 2.41482 24.2494C2.85196 25.9422 3.58221 26.8992 4.31175 27.8555C5.25985 29.1804 6.28249 30.5053 6.50033 33.2281ZM14.0895 34.9209H5.6246C5.18745 34.9209 4.74889 34.553 4.74889 34.1114C4.74889 31.4623 3.87389 30.2849 2.85196 28.96C2.05005 27.93 1.1743 26.7518 0.663341 24.6911C0.225476 23.072 0.735721 19.5389 1.39288 16.7424C2.34171 12.6947 3.50912 10.4872 4.82272 10.1193C5.04129 10.0456 5.18747 10.0456 5.40677 10.0456C7.01131 10.0456 8.10632 11.8114 8.32489 13.1363C8.61656 14.8291 8.3249 17.4052 7.74084 19.3922C9.6385 19.5389 11.3892 21.8945 12.4843 23.8078C13.6517 25.8685 14.6729 28.5183 14.8922 29.9169C14.9653 30.5053 15.0383 33.3755 14.9652 34.1851C14.8921 34.553 14.5274 34.9209 14.0895 34.9209Z" fill="#0145AC"/>
<path d="M4.82301 38.3072H14.0898V34.9216H4.82301V38.3072ZM14.9655 40H3.94727C3.50941 40 3.07153 39.6321 3.07153 39.1167V34.039C3.07153 33.5974 3.43631 33.1558 3.94727 33.1558H14.9655C15.4034 33.1558 15.8413 33.5237 15.8413 34.039V39.1167C15.7682 39.6321 15.4034 40 14.9655 40Z" fill="#0145AC"/>
<path d="M12.411 37.4238C12.1924 37.4238 11.9732 37.3501 11.8277 37.2034C11.6815 37.0559 11.6084 36.8354 11.6084 36.6143C11.6084 36.3938 11.6815 36.1734 11.8277 36.0259C11.9732 35.8785 12.1924 35.8047 12.411 35.8047C12.6303 35.8047 12.8489 35.8785 12.9951 36.0259C13.1406 36.1734 13.2144 36.3938 13.2144 36.6143C13.2144 36.8354 13.1406 37.0559 12.9951 37.2034C12.8489 37.3501 12.6303 37.4238 12.411 37.4238Z" fill="#0145AC"/>
<path d="M20.0005 40C19.5626 40 19.1248 39.6321 19.1248 39.1167V9.38343C19.1248 8.9418 19.4895 8.50019 20.0005 8.50019C20.4376 8.50019 20.8762 8.86807 20.8762 9.38343V39.1904C20.8762 39.6321 20.4376 40 20.0005 40Z" fill="#0145AC"/>
<path d="M20.001 1.80313C17.0815 3.79012 15.3314 6.58664 15.3314 9.53062C15.3314 12.4746 17.0091 15.2712 20.001 17.2581C22.9923 15.2712 24.6706 12.4746 24.6706 9.53062C24.6706 6.58664 22.9923 3.79012 20.001 1.80313ZM20.001 19.0977C19.8556 19.0977 19.7086 19.0247 19.5632 18.9509C15.8417 16.6691 13.6523 13.2104 13.6523 9.53062C13.6523 5.85082 15.7686 2.3915 19.5632 0.110328C19.8556 -0.0371263 20.1465 -0.0371263 20.4382 0.110328C24.1604 2.3915 26.349 5.85082 26.349 9.53062C26.349 13.2104 24.1604 16.6691 20.4382 18.9509C20.2927 19.0247 20.1465 19.0977 20.001 19.0977Z" fill="#0145AC"/>
<path d="M20.8762 25.5011C21.0948 25.5748 21.3872 25.5748 21.605 25.5748C22.6277 25.5748 23.5034 25.2806 24.0867 24.6178C24.8894 23.8082 25.181 22.6308 24.9617 21.3059C24.7431 21.3059 24.4515 21.2329 24.2322 21.2329C23.211 21.2329 22.3352 21.6008 21.7519 22.1892C21.0216 22.9987 20.6569 24.1762 20.8762 25.5011ZM21.605 27.2676C21.0948 27.2676 20.5114 27.1939 19.9273 27.0472C19.6357 26.9734 19.4164 26.7522 19.2709 26.3843C18.76 24.2499 19.1971 22.2629 20.5114 21.0117C21.4595 20.0547 22.7731 19.5394 24.2322 19.5394C24.7431 19.5394 25.3272 19.6131 25.9113 19.7605C26.203 19.8343 26.4215 20.0547 26.5677 20.4227C27.0779 22.5571 26.6401 24.5441 25.3272 25.7952C24.3784 26.7522 23.0648 27.2676 21.605 27.2676Z" fill="#0145AC"/>
<path d="M14.9656 21.3059C14.747 22.6308 15.1118 23.8083 15.8413 24.5441C16.4978 25.2069 17.3004 25.5011 18.3216 25.5011C18.5409 25.5011 18.8326 25.501 19.0519 25.4273C19.2712 24.1024 18.9057 22.9257 18.1762 22.1155C17.5928 21.5271 16.7171 21.1592 15.6951 21.1592C15.4766 21.2329 15.2573 21.3059 14.9656 21.3059ZM18.3954 27.2676C16.9356 27.2676 15.6228 26.7522 14.6732 25.7952C13.3603 24.4711 12.9225 22.4841 13.4327 20.4227C13.5058 20.1285 13.7251 19.908 14.0899 19.7605C14.6732 19.6131 15.1842 19.5394 15.7683 19.5394C17.2281 19.5394 18.5409 20.0547 19.4898 21.0117C20.8033 22.3366 21.2412 24.3236 20.7295 26.3843C20.6571 26.6785 20.4379 26.8997 20.0731 27.0472C19.4898 27.1939 18.9057 27.2676 18.3954 27.2676Z" fill="#0145AC"/>
</svg>
