<svg width="15" height="15" viewBox="0 0 15 15" fill="none" xmlns="http://www.w3.org/2000/svg">
<path d="M7.89199 0.652518L14.0983 6.85881C14.0983 6.85882 14.0983 6.85882 14.0983 6.85883C14.2098 6.97026 14.2982 7.10255 14.3585 7.24815C14.4188 7.39376 14.4499 7.54983 14.4499 7.70744C14.4499 7.86505 14.4188 8.02111 14.3585 8.16672C14.2982 8.31232 14.2098 8.44462 14.0983 8.55605L14.0983 8.55606M7.89199 0.652518L13.9569 8.41462L14.0983 8.55606M7.89199 0.652518C7.89189 0.652421 7.8918 0.652324 7.8917 0.652228C7.78057 0.540284 7.64831 0.451525 7.5026 0.391103C7.35687 0.330671 7.20059 0.299789 7.04282 0.300249M7.89199 0.652518L7.04313 0.500249M14.0983 8.55606L8.80582 13.8485L14.0983 8.55606ZM0.550005 6.79307C0.549545 6.95083 0.580427 7.10712 0.640859 7.25285C0.701281 7.39856 0.79004 7.53082 0.901983 7.64195C0.90208 7.64204 0.902177 7.64214 0.902274 7.64223L7.10857 13.8485L7.25001 13.7071L7.10858 13.8485C7.22001 13.96 7.35231 14.0484 7.49791 14.1087C7.64352 14.1691 7.79958 14.2001 7.95719 14.2001C8.1148 14.2001 8.27087 14.1691 8.41648 14.1087C8.56208 14.0484 8.69437 13.96 8.8058 13.8485L0.750005 6.79337M0.550005 6.79307C0.550005 6.79296 0.550006 6.79285 0.550006 6.79274L0.750005 6.79337M0.550005 6.79307V6.79337H0.750005M0.550005 6.79307V1.00025C0.550005 0.814598 0.623755 0.63655 0.75503 0.505275C0.886306 0.373999 1.06435 0.300249 1.25001 0.300249H7.04282M0.750005 6.79337V1.00025C0.750005 0.867641 0.802684 0.740464 0.896452 0.646696C0.99022 0.552928 1.1174 0.500249 1.25001 0.500249H7.04313M7.04282 0.300249C7.04271 0.30025 7.0426 0.30025 7.04249 0.30025L7.04313 0.500249M7.04282 0.300249H7.04313V0.500249M7.95688 12.7174L1.95001 6.71053V1.70025H6.96029L12.9672 7.70712L7.95688 12.7174ZM4.7899 4.27804C4.89429 4.12181 4.95001 3.93814 4.95001 3.75025C4.95001 3.49829 4.84992 3.25666 4.67176 3.0785C4.4936 2.90034 4.25196 2.80025 4.00001 2.80025C3.81211 2.80025 3.62844 2.85597 3.47221 2.96035C3.31599 3.06474 3.19422 3.21311 3.12232 3.3867C3.05042 3.56029 3.0316 3.7513 3.06826 3.93559C3.10491 4.11987 3.19539 4.28914 3.32825 4.422C3.46111 4.55486 3.63039 4.64534 3.81467 4.682C3.99895 4.71865 4.18996 4.69984 4.36355 4.62793C4.53714 4.55603 4.68551 4.43427 4.7899 4.27804Z" fill="#060404" stroke="#060404" stroke-width="0.4"/>
</svg>
