<svg width="43" height="44" viewBox="0 0 43 44" fill="none" xmlns="http://www.w3.org/2000/svg">
<path d="M33.7286 30.885C33.5674 30.885 33.407 30.8039 33.245 30.7236C32.8428 30.3992 32.6824 29.8323 33.0048 29.4276C33.0846 29.3465 33.0846 29.2662 33.1652 29.1851C33.5674 28.5371 34.3725 27.323 35.0157 26.1081C35.9805 24.1657 35.7395 23.5177 35.7395 23.4366C35.7395 23.3563 35.6597 23.2752 35.3373 23.1941C34.8545 23.113 34.4524 22.6272 34.6128 22.1415C34.7739 21.6557 35.1761 21.251 35.6597 21.4132C36.7856 21.5746 37.2676 22.2226 37.5094 22.7084C38.3145 24.5704 36.464 27.7277 34.7739 30.3181C34.6941 30.3992 34.6941 30.4803 34.6128 30.5606C34.3726 30.7236 34.0502 30.885 33.7286 30.885Z" fill="#EE6400"/>
<path d="M28.9014 36.5512H36.3839C36.6249 33.6373 37.7516 32.0988 38.797 30.7233C39.6827 29.5895 40.4065 28.5368 40.8893 26.7558C41.2108 25.5417 40.8893 22.2222 40.0849 18.9839C39.1194 14.7739 37.9934 13.074 37.5904 12.9929C37.5098 12.9929 37.5099 12.9929 37.4301 12.9929C36.8667 12.9929 36.2227 14.0456 36.0623 14.855C35.74 16.7982 36.3839 20.3602 37.1883 22.3845C37.3495 22.7892 37.1883 23.2749 36.8667 23.5174C36.5443 23.7607 36.0623 23.7607 35.7399 23.4363C35.7399 23.4363 35.5788 23.356 35.3378 23.2749C35.2572 23.2749 35.2572 23.2749 35.1766 23.2749C34.373 23.2749 33.0053 24.3268 31.3152 27.2416C30.0281 29.5084 29.0626 32.0988 28.9014 33.2326C28.982 33.5562 28.9014 35.3372 28.9014 36.5512ZM37.3494 38.4133H28.0172C27.5336 38.4133 27.1315 38.0897 27.0517 37.6039C26.9703 36.7134 27.0517 33.5562 27.1315 32.909C27.2919 31.3705 28.4194 28.5368 29.7863 26.27C30.9936 24.1654 32.9239 21.5743 35.0162 21.4129C34.373 19.1461 34.0507 16.3935 34.373 14.4503C34.6132 13.074 35.8205 11.0505 37.5904 11.0505C37.8314 11.0505 37.9934 11.0505 38.2336 11.1316C39.6827 11.5363 40.9691 13.9645 42.016 18.417C42.7398 21.4931 43.3023 25.3795 42.8195 27.1605C42.2562 29.3462 41.2906 30.6414 40.4065 31.8563C39.2797 33.3137 38.315 34.6089 38.315 37.5228C38.2336 38.0086 37.8314 38.4133 37.3494 38.4133Z" fill="#EE6400"/>
<path d="M28.0173 42.1382H38.2337V38.414H28.0173V42.1382ZM39.1993 44.0002H27.0518C26.5682 44.0002 26.0862 43.5955 26.0862 43.0286V37.4432C26.0862 36.9574 26.4884 36.4716 27.0518 36.4716H39.1993C39.6828 36.4716 40.1648 36.8763 40.1648 37.4432V43.0286C40.1648 43.5955 39.6828 44.0002 39.1993 44.0002Z" fill="#EE6400"/>
<path d="M29.8667 41.1663C29.6249 41.1663 29.3847 41.0852 29.2227 40.9238C29.0623 40.7616 28.9817 40.519 28.9817 40.2757C28.9817 40.0332 29.0623 39.7908 29.2227 39.6286C29.3847 39.4664 29.6249 39.3853 29.8667 39.3853C30.1084 39.3853 30.3494 39.4664 30.5106 39.6286C30.6718 39.7908 30.7516 40.0332 30.7516 40.2757C30.7516 40.519 30.6718 40.7616 30.5106 40.9238C30.3494 41.0852 30.1084 41.1663 29.8667 41.1663Z" fill="#EE6400"/>
<path d="M9.27045 30.885C8.94886 30.885 8.70789 30.7236 8.46691 30.4803C8.38631 30.3992 8.38631 30.3181 8.30571 30.2378C6.61561 27.7277 4.7659 24.5704 5.57025 22.6272C5.81204 22.1414 6.29405 21.4934 7.42078 21.3321C7.90355 21.251 8.38631 21.5746 8.46691 22.0604C8.5467 22.5462 8.22511 23.032 7.74234 23.1131C7.42076 23.1942 7.34016 23.2752 7.34016 23.3563C7.25957 23.4366 7.09918 24.1658 8.06473 26.027C8.70789 27.2419 9.43246 28.456 9.91443 29.104C9.99503 29.1851 10.0756 29.2662 10.0756 29.3465C10.398 29.752 10.236 30.3992 9.83464 30.6417C9.59285 30.8039 9.43243 30.885 9.27045 30.885Z" fill="#EE6400"/>
<path d="M6.61546 36.5512H14.098C14.098 35.4183 14.0182 33.5562 14.0182 33.1515C13.857 32.0177 12.9713 29.5084 11.6036 27.1605C9.91429 24.2465 8.54656 23.1938 7.7422 23.1938C7.66161 23.1938 7.66161 23.1938 7.58101 23.1938C7.34003 23.2749 7.17883 23.356 7.17883 23.356C6.85725 23.6796 6.37529 23.6796 6.05291 23.4363C5.73133 23.1938 5.57012 22.708 5.73131 22.3033C6.53566 20.1988 7.17885 16.7171 6.85727 14.7739C6.69688 13.9645 6.05291 12.9118 5.48954 12.9118C5.40974 12.9118 5.40974 12.9118 5.32835 12.9118C4.92617 13.074 3.88085 14.6936 2.91531 18.9027C2.19075 22.1411 1.78937 25.4606 2.11095 26.6747C2.59292 28.5368 3.39807 29.5895 4.20242 30.6414C5.24776 32.0988 6.37527 33.5562 6.61546 36.5512ZM14.983 38.4133H5.64991C5.16794 38.4133 4.6844 38.0086 4.6844 37.5228C4.6844 34.6089 3.71966 33.3137 2.59293 31.8563C1.70878 30.7233 0.743215 29.4273 0.179848 27.1605C-0.302923 25.3795 0.259652 21.4931 0.984208 18.417C2.03035 13.9645 3.31748 11.5363 4.76579 11.1316C5.00678 11.0505 5.16796 11.0505 5.40974 11.0505C7.17884 11.0505 8.38615 12.9929 8.62714 14.4503C8.94872 16.3124 8.62715 19.146 7.98319 21.3317C10.0755 21.4931 12.0058 24.0843 13.2131 26.1889C14.5002 28.4557 15.6261 31.3705 15.8679 32.909C15.9485 33.5562 16.0291 36.7134 15.9485 37.6039C15.8679 38.0086 15.4658 38.4133 14.983 38.4133Z" fill="#EE6400"/>
<path d="M4.76563 42.1382H14.9828V38.414H4.76563V42.1382ZM15.9483 44.0002H3.80008C3.31731 44.0002 2.83453 43.5955 2.83453 43.0286V37.4432C2.83453 36.9574 3.23672 36.4716 3.80008 36.4716H15.9483C16.4311 36.4716 16.9139 36.8763 16.9139 37.4432V43.0286C16.8333 43.5955 16.4311 44.0002 15.9483 44.0002Z" fill="#EE6400"/>
<path d="M13.1331 41.1663C12.8921 41.1663 12.6504 41.0852 12.49 40.9238C12.3288 40.7616 12.2482 40.519 12.2482 40.2757C12.2482 40.0332 12.3288 39.7908 12.49 39.6286C12.6504 39.4664 12.8921 39.3853 13.1331 39.3853C13.3749 39.3853 13.6159 39.4664 13.7771 39.6286C13.9375 39.7908 14.0189 40.0332 14.0189 40.2757C14.0189 40.519 13.9375 40.7616 13.7771 40.9238C13.6159 41.0852 13.3749 41.1663 13.1331 41.1663Z" fill="#EE6400"/>
<path d="M21.5 44.0002C21.0172 44.0002 20.5344 43.5955 20.5344 43.0286V10.322C20.5344 9.83622 20.9366 9.35045 21.5 9.35045C21.9819 9.35045 22.4655 9.75512 22.4655 10.322V43.1097C22.4655 43.5955 21.9819 44.0002 21.5 44.0002Z" fill="#EE6400"/>
<path d="M21.5 1.98408C18.281 4.16977 16.3515 7.24594 16.3515 10.4843C16.3515 13.7227 18.2012 16.7989 21.5 18.9846C24.7981 16.7989 26.6485 13.7227 26.6485 10.4843C26.6485 7.24594 24.7981 4.16977 21.5 1.98408ZM21.5 21.0081C21.3397 21.0081 21.1776 20.9278 21.0173 20.8467C16.9141 18.3366 14.5002 14.5321 14.5002 10.4843C14.5002 6.43654 16.8335 2.63128 21.0173 0.121999C21.3396 -0.0402008 21.6604 -0.0402008 21.982 0.121999C26.086 2.63128 28.499 6.43654 28.499 10.4843C28.499 14.5321 26.086 18.3366 21.982 20.8467C21.8216 20.9278 21.6604 21.0081 21.5 21.0081Z" fill="#EE6400"/>
<path d="M22.4654 28.0522C22.7064 28.1333 23.0287 28.1333 23.2689 28.1333C24.3965 28.1333 25.362 27.8097 26.0052 27.0806C26.8901 26.1901 27.2117 24.8949 26.9699 23.4375C26.7289 23.4375 26.4073 23.3572 26.1655 23.3572C25.0396 23.3572 24.0741 23.7619 23.4309 24.4091C22.6258 25.2996 22.2236 26.5948 22.4654 28.0522ZM23.2689 29.9954C22.7064 29.9954 22.0632 29.9143 21.4192 29.7529C21.0976 29.6718 20.8559 29.4285 20.6955 29.0238C20.1321 26.6759 20.6141 24.4902 22.0632 23.1139C23.1086 22.0612 24.5568 21.4943 26.1655 21.4943C26.7289 21.4943 27.3729 21.5754 28.0168 21.7376C28.3384 21.8187 28.5794 22.0612 28.7406 22.4659C29.3032 24.8138 28.8204 26.9995 27.3729 28.3758C26.3268 29.4285 24.8784 29.9954 23.2689 29.9954Z" fill="#EE6400"/>
<path d="M15.9483 23.4375C15.7073 24.8949 16.1095 26.1901 16.9138 26.9995C17.6376 27.7286 18.5225 28.0522 19.6485 28.0522C19.8903 28.0522 20.2118 28.0522 20.4536 27.9711C20.6954 26.5137 20.2925 25.2193 19.4881 24.328C18.8449 23.6808 17.8794 23.2761 16.7526 23.2761C16.5117 23.3572 16.2699 23.4375 15.9483 23.4375ZM19.7299 29.9954C18.1204 29.9954 16.6728 29.4285 15.6259 28.3758C14.1784 26.9192 13.6956 24.7335 14.2582 22.4659C14.3388 22.1423 14.5806 21.8998 14.9828 21.7376C15.6259 21.5754 16.1893 21.4943 16.8333 21.4943C18.4428 21.4943 19.8903 22.0612 20.9364 23.1139C22.3847 24.5713 22.8675 26.757 22.3033 29.0238C22.2235 29.3474 21.9818 29.5907 21.5796 29.7529C20.9364 29.9143 20.2924 29.9954 19.7299 29.9954Z" fill="#EE6400"/>
</svg>
