<svg width="44" height="44" viewBox="0 0 44 44" fill="none" xmlns="http://www.w3.org/2000/svg">
<path d="M27.413 20.3531C28.488 20.3531 29.3591 21.2226 29.3591 22.2948C29.3591 23.3678 28.488 24.2373 27.413 24.2373C26.3388 24.2373 25.4669 23.3678 25.4669 22.2948C25.4669 21.2226 26.3388 20.3531 27.413 20.3531Z" fill="#EE6400"/>
<path d="M16.5846 20.3531C17.6588 20.3531 18.5299 21.2226 18.5299 22.2948C18.5299 23.3678 17.6588 24.2373 16.5846 24.2373C15.5088 24.2373 14.6377 23.3678 14.6377 22.2948C14.6377 21.2226 15.5088 20.3531 16.5846 20.3531Z" fill="#EE6400"/>
<path d="M4.14562 1.94143C2.96152 1.94143 1.94609 2.95498 1.94609 4.13774V39.7772C1.94609 40.959 2.96152 41.9727 4.14562 41.9727H39.8509C41.035 41.9727 42.0505 40.959 42.0505 39.7772V4.13774C42.0505 2.95498 41.035 1.94143 39.8509 1.94143H4.14562ZM39.8509 43.9998H4.14562C1.86133 43.9998 0 42.1419 0 39.8619V4.13774C0 1.85766 1.86133 -0.000242464 4.14562 -0.000242464H39.8509C42.1361 -0.000242464 43.9974 1.85766 43.9974 4.13774V39.7772C44.0813 42.0572 42.1361 43.9998 39.8509 43.9998Z" fill="#EE6400"/>
<path d="M9.05269 6.75533C7.86859 6.75533 6.85316 7.76888 6.85316 8.95081V34.8785C6.85316 36.0614 7.86859 37.0747 9.05269 37.0747H35.0275C36.2125 37.0747 37.227 36.0614 37.227 34.8785V9.03625C37.227 7.85349 36.2125 6.83994 35.0275 6.83994H9.05269V6.75533ZM34.9428 39.1021H9.05269C6.7684 39.1021 4.90625 37.2432 4.90625 34.9632V9.03625C4.90625 6.75533 6.7684 4.89826 9.05269 4.89826H35.0275C37.3126 4.89826 39.1731 6.75533 39.1731 9.03625V34.9632C39.1731 37.2432 37.3127 39.1021 34.9428 39.1021Z" fill="#EE6400"/>
<path d="M19.1219 11.9079C14.299 13.1736 10.8298 17.3971 10.8298 22.2948C10.8298 27.1942 14.299 31.5006 19.1219 32.6832V29.1359C19.1219 28.6299 19.5448 28.1223 20.1373 28.1223H24.0295C24.5364 28.1223 25.0449 28.5445 25.0449 29.1359V32.6832C29.7822 31.4169 33.1667 27.1942 33.1667 22.2948C33.1667 17.3971 29.7822 13.2591 25.0449 11.9079V15.4545C25.0449 15.9613 24.622 16.4681 24.0295 16.4681H20.1373C19.6287 16.4681 19.1219 16.0459 19.1219 15.4545V11.9079ZM20.1373 34.8788C20.0517 34.8788 20.0517 34.8788 19.9678 34.8788C16.9223 34.4566 14.1303 32.9361 12.0995 30.6561C10.0686 28.2915 8.88452 25.3354 8.88452 22.2948C8.88452 19.255 9.98387 16.2989 12.0995 13.935C14.1303 11.6541 16.9223 10.1346 19.9678 9.71246C20.2212 9.71246 20.5602 9.71246 20.7289 9.96459C20.9832 10.1346 21.0671 10.3868 21.0671 10.7252V14.5256H23.0141V10.8098C23.0141 10.556 23.098 10.2184 23.3523 10.0492C23.6065 9.88083 23.8591 9.79622 24.1134 9.79622C27.1597 10.303 29.867 11.8233 31.8978 14.1034C33.9278 16.3843 35.028 19.3396 35.028 22.3802C35.028 25.4201 33.9278 28.3761 31.8978 30.6561C29.867 32.9361 27.1597 34.4566 24.1134 34.9635C23.8591 35.0479 23.5209 34.9635 23.3523 34.7096C23.098 34.541 23.0141 34.2881 23.0141 33.9498V30.234H21.0671V34.0345C21.0671 34.2881 20.9832 34.6258 20.7289 34.7943C20.5602 34.7943 20.3907 34.8788 20.1373 34.8788Z" fill="#EE6400"/>
</svg>
