<svg width="37" height="44" viewBox="0 0 37 44" fill="none" xmlns="http://www.w3.org/2000/svg">
<path d="M6.36233 10.3347C3.96521 10.3347 1.98058 12.2725 1.98058 14.6139V34.1515C1.98058 36.4929 3.96521 38.4299 6.36233 38.4299H21.5766C23.9746 38.4299 25.9583 36.4929 25.9583 34.1515V14.6139C25.9583 12.2725 23.9746 10.3347 21.5766 10.3347H6.36233ZM21.5766 40.2869H6.36233C2.89007 40.2869 0.0787964 37.5419 0.0787964 34.1515V14.6139C0.0787964 11.2235 2.89007 8.47773 6.36233 8.47773H21.5766C25.0497 8.47773 27.8601 11.2235 27.8601 14.6139V34.1515C27.8601 37.5419 25.0497 40.2869 21.5766 40.2869Z" fill="#142637"/>
<path d="M7.77103 8.47704H20.2569V1.93807H7.77103V8.47704ZM21.1656 10.334H6.77875C6.28342 10.334 5.78644 9.9304 5.78644 9.36506V0.969149C5.78644 0.484692 6.20059 0.000267029 6.77875 0.000267029H21.1656C21.6625 0.000267029 22.1579 0.403816 22.1579 0.969149V9.36506C22.0759 9.9304 21.6625 10.334 21.1656 10.334Z" fill="#142637"/>
<path d="M13.4747 10.334C12.9786 10.334 12.4824 9.9304 12.4824 9.36506V3.79501C12.4824 3.31056 12.8958 2.82613 13.4747 2.82613C14.0537 2.82613 14.4671 3.22968 14.4671 3.79501V9.36506C14.4671 9.9304 13.9709 10.334 13.4747 10.334Z" fill="#142637"/>
<path d="M17.28 6.62085H6.77875C6.28342 6.62085 5.78644 6.21726 5.78644 5.65193C5.78644 5.0866 6.20059 4.68305 6.77875 4.68305H17.28C17.7761 4.68305 18.2723 5.0866 18.2723 5.65193C18.2723 6.21726 17.859 6.62085 17.28 6.62085Z" fill="#142637"/>
<path d="M1.98058 32.7776H25.9583V15.985H1.98058V32.7776ZM26.8678 34.6345H1.07111C0.574958 34.6345 0.0787964 34.2309 0.0787964 33.6656V15.016C0.0787964 14.5316 0.492129 14.0471 1.07111 14.0471H26.9507C27.4468 14.0471 27.943 14.4507 27.943 15.016V33.7465C27.8601 34.231 27.4468 34.6345 26.8678 34.6345Z" fill="#142637"/>
<path d="M7.77103 42.1431H21.1656V40.2861H7.77103V42.1431ZM22.0759 44H6.77875C6.28342 44 5.78644 43.5964 5.78644 43.0311V39.318C5.78644 38.8335 6.20059 38.3491 6.77875 38.3491H22.0759C22.572 38.3491 23.0682 38.7526 23.0682 39.318V43.0311C23.0682 43.5964 22.6548 44 22.0759 44Z" fill="#142637"/>
<path d="M9.91974 23.7355H12.5653C12.8958 23.7355 13.2272 23.8965 13.3928 24.22C13.5577 24.5427 13.5577 24.8654 13.3928 25.108L12.4825 26.8032L17.6089 22.4439L14.8804 22.1204C14.5499 22.1204 14.3015 21.8785 14.1366 21.6359C13.971 21.3941 13.971 21.0706 14.1366 20.7479L15.211 18.8109H12.5653L9.91974 23.7355ZM8.92743 31.9705C8.67976 31.9705 8.5141 31.8896 8.34844 31.7278C8.01794 31.4051 7.85228 30.9207 8.10077 30.5171L10.9112 25.5925H8.34844C8.01794 25.5925 7.68746 25.4307 7.52262 25.108C7.35615 24.7853 7.35615 24.4618 7.52262 24.22L11.1597 17.3575C11.3254 17.034 11.6567 16.873 11.9872 16.873H16.7831C17.1136 16.873 17.4432 17.034 17.6089 17.3575C17.7745 17.5993 17.7745 18.0029 17.6089 18.2455L16.4517 20.3443L19.9248 20.7479C20.3373 20.8288 20.5858 21.0706 20.7507 21.3941C20.9171 21.7168 20.7507 22.1204 20.503 22.363L9.50562 31.7278C9.34078 31.8896 9.1751 31.9705 8.92743 31.9705Z" fill="#142637"/>
<path d="M35.5524 22.5247C35.3047 22.5247 34.9742 22.4446 34.8085 22.2019C34.5609 21.9601 32.4934 19.1342 31.7496 9.52679C31.5839 7.34714 30.8401 5.81291 29.5173 5.08663C27.0366 3.71414 22.9853 5.00572 21.6625 5.65193C21.1655 5.89376 20.5874 5.65195 20.4217 5.16749C20.1732 4.68303 20.4217 4.11771 20.9187 3.95596C21.1655 3.87588 26.7889 1.29182 30.5916 3.47148C32.4934 4.52127 33.5686 6.54 33.8162 9.44593C34.5609 18.5689 36.4627 21.0713 36.4627 21.0713C36.7932 21.4756 36.7103 22.0402 36.297 22.3637C35.9665 22.4446 35.718 22.5247 35.5524 22.5247Z" fill="#142637"/>
<path d="M26.8684 30.9214H17.2775C16.7821 30.9214 16.2852 30.5178 16.2852 29.9525C16.2852 29.3871 16.6985 28.9835 17.2775 28.9835H26.8684C27.3654 28.9835 27.8607 29.3871 27.8607 29.9525C27.8607 30.5178 27.4474 30.9214 26.8684 30.9214Z" fill="#142637"/>
<path d="M5.78656 19.6995H0.992316C0.495342 19.6995 0 19.2959 0 18.7305C0 18.2461 0.413333 17.7616 0.992316 17.7616H5.78656C6.28353 17.7616 6.77887 18.1652 6.77887 18.7305C6.77887 19.2959 6.36554 19.6995 5.78656 19.6995Z" fill="#142637"/>
</svg>
