<svg width="28" height="44" viewBox="0 0 28 44" fill="none" xmlns="http://www.w3.org/2000/svg">
<path d="M14 4.96172C7.33309 4.96172 1.91675 10.4308 1.91675 17.1608V41.9804H26.0841V17.1608C26.0841 10.4308 20.6669 4.96172 14 4.96172ZM26.0841 43.9998H1.91675C0.833978 43.9998 0 43.1578 0 42.0646V17.1608C0 9.33685 6.25031 3.0266 14 3.0266C21.7505 3.0266 28 9.33685 28 17.1608V41.9804C28 43.0743 27.1669 43.9998 26.0841 43.9998Z" fill="#142637"/>
<path d="M14.0856 10.2616C12.9193 10.2616 12.0019 11.1871 12.0019 12.3653C12.0019 13.5428 12.9193 14.4682 14.0856 14.4682C15.2527 14.4682 16.1693 13.5428 16.1693 12.3653C16.1693 11.1871 15.2527 10.2616 14.0856 10.2616ZM14.0856 16.4033C11.9192 16.4033 10.0859 14.5525 10.0859 12.3653C10.0859 10.1774 11.9192 8.32651 14.0856 8.32651C16.2528 8.32651 18.0861 10.1774 18.0861 12.3653C18.0861 14.5525 16.3363 16.4033 14.0856 16.4033Z" fill="#142637"/>
<path d="M13.4973 10.2637C13.0807 10.2637 12.7476 10.0117 12.5815 9.59111C11.5814 6.72972 9.49766 4.62685 6.58079 3.28086C4.33094 2.27115 2.33071 2.01832 2.33071 2.01832C1.83147 1.93487 1.41406 1.51346 1.41406 0.92516C1.49754 0.420308 1.91413 -0.000270844 2.49767 -0.000270844C2.58115 -0.000270844 4.831 0.168303 7.33047 1.34573C10.7474 2.94374 13.2477 5.468 14.4148 8.74912C14.5809 9.25398 14.3313 9.8431 13.8312 10.0117C13.7477 10.2637 13.5808 10.2637 13.4973 10.2637Z" fill="#142637"/>
<path d="M8.33165 28.6867H12.166C12.4983 28.6867 12.8322 28.8553 12.9983 29.1073C13.1653 29.3602 13.1653 29.7807 13.0818 30.0336L11.0824 34.2401L19.3321 25.9105L15.1655 25.3213C14.8324 25.3213 14.582 25.0693 14.4158 24.8165C14.2489 24.5645 14.2489 24.2282 14.4158 23.9753L15.9987 20.4422H12.0825L8.33165 28.6867ZM7.58197 40.0447C7.41584 40.0447 7.16539 39.9604 6.99843 39.8769C6.58185 39.6241 6.49919 39.1192 6.66533 38.6978L10.4988 30.6219H6.74881C6.41571 30.6219 6.08178 30.4542 5.91565 30.2013C5.74869 29.9485 5.7487 29.6122 5.83219 29.275L10.4988 19.0954C10.6658 18.7591 10.9989 18.5071 11.4155 18.5071H17.4988C17.8319 18.5071 18.165 18.6748 18.332 18.9277C18.499 19.1797 18.499 19.5168 18.4155 19.8531L16.7492 23.6391L21.582 24.3116C21.9159 24.3959 22.249 24.6488 22.3325 24.9851C22.4151 25.3213 22.3325 25.7419 22.082 25.9947L8.249 39.7927C8.08204 39.9604 7.83159 40.0447 7.58197 40.0447Z" fill="#142637"/>
</svg>
