<svg width="44" height="44" viewBox="0 0 44 44" fill="none" xmlns="http://www.w3.org/2000/svg">
<path d="M32.3401 4.40817L35.0611 5.56787V1.93386H32.3401V4.40817ZM35.9933 7.81055C35.8383 7.81055 35.7604 7.81055 35.6047 7.73308L31.0964 5.80027C30.7849 5.64534 30.552 5.33623 30.552 4.9489V0.928345C30.552 0.464316 30.9406 0.000279073 31.485 0.000279073H35.9933C36.4605 0.000279073 36.9263 0.38685 36.9263 0.928345V6.80501C36.9263 7.11488 36.7713 7.42398 36.5377 7.57891C36.304 7.73308 36.149 7.81055 35.9933 7.81055Z" fill="#EE6400"/>
<path d="M1.71045 10.5171V13.1463L21.6891 6.41826C21.8457 6.34079 22.0777 6.34079 22.2335 6.41826L42.29 13.1463V10.5171L22.0006 1.93367L1.71045 10.5171ZM43.1459 15.3115C43.0673 15.3115 42.9123 15.3115 42.8344 15.2341L22.0006 8.19692L1.16608 15.2341C0.855348 15.3115 0.622485 15.3115 0.388857 15.0791C0.155999 14.925 0.000244141 14.6151 0.000244141 14.3835V9.8981C0.000244141 9.51154 0.233106 9.20243 0.54461 9.0475L21.612 0.154253C21.8457 0.0775539 22.0777 0.0775539 22.3114 0.154253L43.4567 9.12497C43.7674 9.27913 44.0002 9.589 44.0002 9.97557V14.4609C44.0002 14.77 43.8453 15.0017 43.6116 15.1566C43.5338 15.2341 43.378 15.3115 43.1459 15.3115Z" fill="#EE6400"/>
<path d="M23.5555 35.9589H35.9162V12.9147L22.0011 8.19769L8.00803 13.2238V35.9589H17.8027L18.6585 34.1028H14.693C14.3823 34.1028 14.0708 33.9486 13.9158 33.7162C13.76 33.4838 13.6829 33.1747 13.8387 32.8656L18.5028 22.117C18.6585 21.8079 18.9693 21.5755 19.3579 21.5755H25.4993C25.81 21.5755 26.1208 21.7305 26.2765 21.9621C26.4323 22.1945 26.5094 22.5036 26.3544 22.8127L24.5663 26.9115L29.5412 27.6071C29.8519 27.6846 30.1634 27.917 30.2412 28.2261C30.3191 28.5352 30.2413 28.9218 30.0076 29.1542L23.5555 35.9589ZM36.8492 37.7375H21.4567C21.0681 37.7375 20.7566 37.5059 20.6016 37.196C20.4459 36.887 20.5237 36.5004 20.7566 36.1913L27.4423 29.1542L23.0111 28.5352C22.7004 28.4585 22.4668 28.3036 22.3897 28.0712C22.2339 27.8395 22.2339 27.5305 22.3118 27.2981L24.022 23.3542H19.8236L16.0146 32.2474H20.0572C20.368 32.2474 20.6794 32.4016 20.8344 32.634C20.9902 32.8656 20.9902 33.253 20.9131 33.4838L19.2021 37.1194C19.0471 37.4284 18.7356 37.6601 18.347 37.6601H7.15291C6.68566 37.6601 6.21997 37.2735 6.21997 36.7328V12.6056C6.21997 12.219 6.45359 11.9099 6.8422 11.755L21.6896 6.41903C21.8461 6.34156 22.0781 6.34156 22.3118 6.41903L37.1599 11.4459C37.5485 11.6001 37.7814 11.9099 37.7814 12.2957V36.8095C37.7814 37.3502 37.3935 37.7375 36.8492 37.7375Z" fill="#EE6400"/>
<path d="M16.0934 32.2469H20.0574C20.3682 32.2469 20.6796 32.4011 20.8346 32.6335C20.9904 32.8651 20.9904 33.2524 20.9133 33.4833L18.5801 38.5101L27.5204 29.1536L23.0892 28.5347C22.7777 28.458 22.5456 28.303 22.467 28.0706C22.312 27.839 22.312 27.5299 22.3899 27.2975L24.1 23.3536H19.9017L16.0934 32.2469ZM15.4712 44.0002C15.3155 44.0002 15.0818 43.9236 15.004 43.8461C14.6161 43.6137 14.5382 43.1504 14.6932 42.7631L18.7358 34.1023H14.7719C14.4604 34.1023 14.1496 33.9481 13.9939 33.7157C13.8389 33.4833 13.7602 33.1742 13.916 32.8651L18.503 22.1165C18.6587 21.8074 18.9695 21.575 19.3581 21.575H25.4995C25.8102 21.575 26.1209 21.7299 26.2767 21.9616C26.4325 22.194 26.5096 22.503 26.3546 22.8121L24.5665 26.911L29.5414 27.6066C29.8521 27.6841 30.1636 27.9165 30.2414 28.2256C30.3193 28.5347 30.2415 28.9212 30.0078 29.1536L16.1706 43.6912C15.9369 43.9236 15.7041 44.0002 15.4712 44.0002Z" fill="#EE6400"/>
<path d="M7.15225 37.7375H2.64315C2.17666 37.7375 1.71021 37.3502 1.71021 36.8095C1.71021 36.3455 2.09878 35.8814 2.64315 35.8814H7.15225C7.61796 35.8814 8.08523 36.268 8.08523 36.8095C8.00735 37.3502 7.61796 37.7375 7.15225 37.7375Z" fill="#EE6400"/>
<path d="M41.3576 37.7375H36.8492C36.3828 37.7375 35.9163 37.3502 35.9163 36.8095C35.9163 36.3455 36.3041 35.8814 36.8492 35.8814H41.3576C41.8248 35.8814 42.2905 36.268 42.2905 36.8095C42.2905 37.3502 41.8248 37.7375 41.3576 37.7375Z" fill="#EE6400"/>
<path d="M22.4666 12.6046C20.99 12.6046 19.7463 13.8418 19.7463 15.3113C19.7463 16.7801 20.99 18.0173 22.4666 18.0173C23.9439 18.0173 25.1876 16.7801 25.1876 15.3113C25.1876 13.8418 23.9439 12.6046 22.4666 12.6046ZM22.4666 19.7959C19.98 19.7959 17.9583 17.7856 17.9583 15.3113C17.9583 12.8362 19.98 10.826 22.4666 10.826C24.9548 10.826 26.9757 12.8362 26.9757 15.3113C26.9757 17.7856 24.9548 19.7959 22.4666 19.7959Z" fill="#EE6400"/>
</svg>
