<svg width="42" height="44" viewBox="0 0 42 44" fill="none" xmlns="http://www.w3.org/2000/svg">
<path d="M6.51675 24.9113C10.2179 26.2054 15.4478 26.9333 20.9995 26.9333C26.2294 26.9333 31.2179 26.2863 34.9191 25.073C38.1374 24.0215 40.1489 22.6465 40.1489 21.3524C40.1489 20.8671 39.9076 20.4627 39.5053 20.1392C39.1834 20.3009 38.8616 20.3818 38.4593 20.3818C37.2524 20.3818 36.2869 19.4112 36.2869 18.1171C32.5857 16.6612 26.9535 15.7715 20.9995 15.7715C9.17193 15.7715 1.93055 19.0068 1.93055 21.3524C1.93055 21.6759 2.09147 22.0804 2.25239 22.323C2.65468 21.9995 3.2179 21.8377 3.78112 21.8377C5.30986 21.8377 6.59721 23.1318 6.59721 24.6686C6.51675 24.8304 6.51675 24.8304 6.51675 24.9113ZM20.9995 28.8745C14.8846 28.8745 9.09147 27.9848 5.14894 26.3671C4.66618 26.2054 4.4248 25.6392 4.58572 25.1539C4.58572 25.073 4.66618 24.9113 4.66618 24.7495C4.66618 24.2642 4.26388 23.7789 3.70066 23.7789C3.37882 23.7789 3.13744 23.9407 2.97652 24.1833C2.8156 24.426 2.57422 24.5877 2.33285 24.5877C2.09147 24.5877 1.76963 24.5068 1.60871 24.3451C0.56273 23.4554 -0.000488281 22.4039 -0.000488281 21.3524C-0.000488281 16.4994 10.7811 13.9112 20.9191 13.9112C27.5972 13.9112 33.7122 14.9627 37.6547 16.7421C37.8961 16.823 38.057 17.0656 38.1374 17.3083C38.2179 17.5509 38.2179 17.7936 38.1374 18.0362C38.1374 18.0362 38.1374 18.1171 38.1374 18.198C38.1374 18.3597 38.2984 18.5215 38.4593 18.5215C38.5397 18.5215 38.6202 18.4406 38.7007 18.3597C38.8616 18.1171 39.103 17.9553 39.3443 17.9553C39.5857 17.8744 39.9076 17.9553 40.0685 18.1171C41.6777 19.3303 41.9995 20.5436 41.9995 21.3524C41.9995 23.5362 39.7466 25.4774 35.4823 26.8524C31.5397 28.1466 26.4708 28.8745 20.9995 28.8745Z" fill="#EE6400"/>
<path d="M18.3445 4.77185C16.6549 8.41158 15.6089 14.7204 15.6089 21.4337C15.6089 26.772 16.2526 31.8676 17.379 35.6691C18.264 38.5 19.2296 40.0368 20.0342 40.6838C20.356 39.6324 21.3215 38.9044 22.448 38.9044C22.6893 38.9044 23.0112 38.9853 23.2526 39.0662C25.1836 35.6691 26.3905 28.9558 26.3905 21.5146C26.3905 16.0954 25.7468 11.0807 24.6204 7.27922C23.4135 3.31596 21.9652 1.94095 20.9997 1.94095C20.9192 1.94095 20.7583 1.94095 20.6778 2.02183C20.7583 2.1836 20.7583 2.42624 20.7583 2.58801C20.7583 3.80125 19.7928 4.85273 18.5859 4.85273C18.425 4.77185 18.425 4.77185 18.3445 4.77185ZM20.9192 42.8677C18.7468 42.7868 16.8962 40.5221 15.6089 36.1544C14.402 32.1911 13.7583 26.9338 13.7583 21.4337C13.7583 13.9925 15.0457 6.95568 17.0572 3.23507C17.2985 2.83066 17.8617 2.58801 18.264 2.83066C18.3445 2.91154 18.425 2.91154 18.5054 2.91154C18.6663 2.91154 18.8273 2.74978 18.8273 2.58801C18.8273 2.50713 18.7468 2.42624 18.7468 2.34536C18.5054 2.1836 18.425 1.94095 18.425 1.61742C18.425 1.29388 18.5054 1.05124 18.7468 0.88947C19.4709 0.32329 20.1951 -0.00024119 20.9192 -0.00024119C23.0916 -0.00024119 24.9422 2.26448 26.31 6.63215C27.5169 10.5954 28.2411 15.8528 28.2411 21.4337C28.2411 29.9264 26.7123 37.3676 24.2985 40.7647C24.1376 41.0074 23.8962 41.1691 23.5744 41.1691C23.333 41.1691 23.0112 41.0883 22.8503 40.9265C22.7698 40.8456 22.6089 40.7647 22.448 40.7647C22.0457 40.7647 21.8043 41.0883 21.8043 41.4927C21.8043 41.5735 21.8043 41.6544 21.8847 41.8162C21.9652 42.1397 21.8847 42.3824 21.7238 42.625C21.4824 42.7868 21.2411 42.8677 20.9192 42.8677Z" fill="#EE6400"/>
<path d="M33.1487 7.11702C29.6889 7.11702 23.0912 11.4038 17.1372 17.47C8.76936 26.0436 5.87281 33.6466 7.482 35.2643C7.72338 35.5878 8.20614 35.6687 8.84982 35.6687C12.3096 35.6687 18.8268 31.3819 24.8613 25.3157C28.5625 21.5142 31.6199 17.47 33.3901 13.9112C35.2406 10.1906 35.2406 8.1685 34.5165 7.52144C34.1947 7.27879 33.7924 7.11702 33.1487 7.11702ZM8.84982 37.6099C7.72338 37.6099 6.83833 37.2863 6.19465 36.6393C4.66591 35.1025 4.98775 32.1098 6.99925 28.0657C8.84982 24.3451 11.9878 20.1392 15.8498 16.2568C22.2061 9.70528 29.2061 5.3376 33.1487 5.3376C34.2751 5.3376 35.1602 5.66113 35.8038 6.3082C37.3326 7.84497 37.0107 10.8376 34.9992 14.8818C33.1487 18.6024 30.0107 22.8083 26.1487 26.7716C23.0107 30.0069 19.7119 32.676 16.6544 34.6172C14.482 35.9922 11.3441 37.6099 8.84982 37.6099Z" fill="#EE6400"/>
<path d="M8.84944 7.11702C8.20576 7.11702 7.80346 7.27879 7.48162 7.52144C6.83795 8.1685 6.75749 10.2715 8.60806 13.9112C10.3782 17.47 13.4356 21.5142 17.1368 25.3157C23.0908 31.3819 29.6885 35.6687 33.1483 35.6687C33.792 35.6687 34.1943 35.5069 34.5161 35.2643C36.1253 33.6466 33.2287 26.0436 24.8609 17.47C18.8265 11.4038 12.2288 7.11702 8.84944 7.11702ZM33.1483 37.6099C29.1253 37.6099 22.2058 33.2422 15.8494 26.6907C11.9874 22.7274 8.84944 18.5215 6.99887 14.8009C4.90691 10.7568 4.66553 7.76409 6.19427 6.22731C6.83795 5.58025 7.723 5.25672 8.84944 5.25672C11.3437 5.25672 14.4816 6.87438 16.654 8.24938C19.7115 10.1906 23.0104 12.9406 26.1483 16.095C30.0104 20.0583 33.1483 24.2642 34.9989 27.9039C37.0908 31.9481 37.3322 34.9407 35.8035 36.4775C35.1598 37.2863 34.2747 37.6099 33.1483 37.6099Z" fill="#EE6400"/>
<path d="M18.5051 2.18372C18.3442 2.18372 18.1833 2.34549 18.1833 2.50725C18.1833 2.66902 18.3442 2.83078 18.5051 2.83078C18.666 2.83078 18.827 2.66902 18.827 2.50725C18.827 2.34549 18.666 2.18372 18.5051 2.18372ZM18.5051 4.77197C17.2982 4.77197 16.3327 3.80138 16.3327 2.50725C16.3327 1.29401 17.2982 0.242533 18.5051 0.242533C19.712 0.242533 20.6775 1.21313 20.6775 2.50725C20.6775 3.7205 19.712 4.77197 18.5051 4.77197Z" fill="#EE6400"/>
<path d="M38.4589 17.8744C38.298 17.8744 38.1371 18.0362 38.1371 18.1979C38.1371 18.3597 38.298 18.5215 38.4589 18.5215C38.6198 18.5215 38.7808 18.3597 38.7808 18.1979C38.7808 18.0362 38.6198 17.8744 38.4589 17.8744ZM38.4589 20.4626C37.252 20.4626 36.2865 19.4921 36.2865 18.1979C36.2865 16.9038 37.252 15.9332 38.4589 15.9332C39.6658 15.9332 40.6313 16.9038 40.6313 18.1979C40.6313 19.4921 39.6658 20.4626 38.4589 20.4626Z" fill="#EE6400"/>
<path d="M22.4473 40.7642C22.045 40.7642 21.8036 41.0877 21.8036 41.4921C21.8036 41.8966 22.045 42.2201 22.4473 42.2201C22.7691 42.2201 23.0909 41.8966 23.0909 41.4921C23.0909 41.0877 22.7691 40.7642 22.4473 40.7642ZM22.4473 43.9995C21.0795 43.9995 19.8726 42.8672 19.8726 41.4113C19.8726 39.9554 20.999 38.823 22.4473 38.823C23.8151 38.823 25.022 40.0363 25.022 41.4113C25.022 42.8672 23.8151 43.9995 22.4473 43.9995Z" fill="#EE6400"/>
<path d="M3.70078 23.8602C3.21802 23.8602 2.81572 24.2646 2.81572 24.8308C2.81572 25.3161 3.21802 25.8014 3.70078 25.8014C4.18354 25.8014 4.6663 25.397 4.6663 24.8308C4.6663 24.2646 4.264 23.8602 3.70078 23.8602ZM3.70078 27.5808C2.17205 27.5808 0.965149 26.2867 0.965149 24.7499C0.965149 23.2131 2.17205 21.919 3.70078 21.919C5.22952 21.919 6.51687 23.2131 6.51687 24.7499C6.51687 26.2867 5.30998 27.5808 3.70078 27.5808Z" fill="#EE6400"/>
<path d="M20.9988 19.7357C20.1138 19.7357 19.3092 20.5445 19.3092 21.4342C19.3092 22.4048 20.0333 23.2137 20.9988 23.2137C21.8839 23.2137 22.6885 22.4048 22.6885 21.4342C22.6885 20.4637 21.8839 19.7357 20.9988 19.7357ZM20.9988 25.074C19.0678 25.074 17.4586 23.4563 17.4586 21.4342C17.4586 19.4931 19.0678 17.8754 20.9988 17.8754C22.9299 17.8754 24.5391 19.4931 24.5391 21.4342C24.5391 23.4563 22.9299 25.074 20.9988 25.074Z" fill="#EE6400"/>
<path d="M3.78105 39.3091C3.53967 39.3091 3.29829 39.2282 3.13738 39.0664C2.97646 38.9047 2.896 38.662 2.896 38.4194C2.896 38.1767 2.97646 37.9341 3.13738 37.7723C3.29829 37.6105 3.53967 37.5297 3.78105 37.5297C4.02243 37.5297 4.26381 37.6105 4.42473 37.7723C4.58565 37.9341 4.66611 38.1767 4.66611 38.4194C4.66611 38.662 4.58565 38.9047 4.42473 39.0664C4.26381 39.2282 4.02243 39.3091 3.78105 39.3091Z" fill="#EE6400"/>
<path d="M10.298 41.1685C10.0567 41.1685 9.81528 41.0876 9.65436 40.9258C9.49344 40.764 9.33252 40.5214 9.33252 40.2787C9.33252 40.0361 9.41298 39.7934 9.5739 39.6317C9.73482 39.4699 9.9762 39.389 10.2176 39.389C10.459 39.389 10.7003 39.4699 10.8613 39.6317C11.0222 39.7934 11.1026 40.0361 11.1026 40.2787C11.1026 40.5214 11.0222 40.764 10.8613 40.9258C10.7808 41.0876 10.5394 41.1685 10.298 41.1685Z" fill="#EE6400"/>
<path d="M10.2979 1.85986C10.0565 1.85986 9.8151 1.77898 9.65418 1.61721C9.4128 1.37457 9.33234 1.13192 9.33234 0.889269C9.33234 0.64662 9.4128 0.403972 9.57372 0.242206C9.73464 0.0804403 9.97601 -0.00044255 10.2174 -0.00044255C10.4588 -0.00044255 10.7002 0.0804403 10.8611 0.242206C11.022 0.403972 11.1025 0.64662 11.1025 0.889269C11.1025 1.13192 11.022 1.37457 10.8611 1.53633C10.7806 1.77898 10.5392 1.85986 10.2979 1.85986Z" fill="#EE6400"/>
<path d="M3.78105 5.58057C3.53967 5.58057 3.29829 5.49968 3.13738 5.33792C2.97646 5.17615 2.896 4.9335 2.896 4.69085C2.896 4.44821 2.97646 4.20556 3.13738 4.04379C3.29829 3.88203 3.53967 3.80114 3.78105 3.80114C4.02243 3.80114 4.26381 3.88203 4.42473 4.04379C4.58565 4.20556 4.66611 4.44821 4.66611 4.69085C4.66611 4.9335 4.58565 5.17615 4.42473 5.33792C4.26381 5.49968 4.02243 5.58057 3.78105 5.58057Z" fill="#EE6400"/>
<path d="M39.1825 10.272C38.9411 10.272 38.6997 10.1911 38.5388 10.0293C38.3779 9.86756 38.2974 9.62491 38.2974 9.38226C38.2974 9.13961 38.3779 8.89696 38.5388 8.7352C38.6997 8.57343 38.9411 8.49255 39.1825 8.49255C39.4239 8.49255 39.6652 8.57343 39.8262 8.7352C39.9871 8.89696 40.0675 9.13961 40.0675 9.38226C40.0675 9.62491 39.9871 9.86756 39.8262 10.0293C39.6652 10.1911 39.4239 10.272 39.1825 10.272Z" fill="#EE6400"/>
<path d="M41.034 33.7283C40.7927 33.7283 40.5513 33.6474 40.3904 33.4856C40.2294 33.3239 40.149 33.0812 40.149 32.8386C40.149 32.5959 40.2294 32.3533 40.3904 32.1915C40.5513 32.0297 40.7927 31.9488 41.034 31.9488C41.2754 31.9488 41.5168 32.0297 41.6777 32.1915C41.8386 32.3533 41.9191 32.5959 41.9191 32.8386C41.9191 33.0812 41.8386 33.3239 41.6777 33.4856C41.5168 33.6474 41.2754 33.7283 41.034 33.7283Z" fill="#EE6400"/>
<path d="M32.6658 41.1685C32.4244 41.1685 32.1831 41.0876 32.0221 40.9258C31.8612 40.764 31.7808 40.5214 31.7808 40.2787C31.7808 40.0361 31.8612 39.7934 32.0221 39.6317C32.1831 39.4699 32.4244 39.389 32.6658 39.389C32.9072 39.389 33.1486 39.4699 33.3095 39.6317C33.4704 39.7934 33.5509 40.0361 33.5509 40.2787C33.5509 40.5214 33.4704 40.764 33.3095 40.9258C33.1486 41.0876 32.9072 41.1685 32.6658 41.1685Z" fill="#EE6400"/>
<path d="M20.9996 33.7283C20.7582 33.7283 20.5169 33.6474 20.3559 33.4856C20.195 33.3239 20.1146 33.0812 20.1146 32.8386C20.1146 32.5959 20.195 32.3533 20.3559 32.1915C20.5169 32.0297 20.7582 31.9488 20.9996 31.9488C21.241 31.9488 21.4824 32.0297 21.6433 32.1915C21.8042 32.3533 21.8847 32.5959 21.8847 32.8386C21.8847 33.0812 21.8042 33.3239 21.6433 33.4856C21.4824 33.6474 21.241 33.7283 20.9996 33.7283Z" fill="#EE6400"/>
</svg>
