<svg width="48" height="44" viewBox="0 0 48 44" fill="none" xmlns="http://www.w3.org/2000/svg">
<path d="M2.10979 41.9727H20.3952V6.17206H2.10979V41.9727ZM21.4501 44H1.05464C0.527026 44 -0.000244141 43.5592 -0.000244141 42.9418V5.20215C-0.000244141 4.67215 0.439482 4.14388 1.05464 4.14388H21.4501C21.9777 4.14388 22.5053 4.58469 22.5053 5.20215V43.031C22.5053 43.5592 21.9777 44 21.4501 44Z" fill="#EE6400"/>
<path d="M7.20891 4.1437H15.3848V2.11552H7.20891V4.1437ZM16.3515 6.17188H6.15367C5.62649 6.17188 5.09888 5.73022 5.09888 5.11363V1.05813C5.09888 0.528123 5.5386 -0.000118979 6.15367 -0.000118979H16.3515C16.879 -0.000118979 17.4066 0.440664 17.4066 1.05813V5.11363C17.4066 5.73022 16.9672 6.17188 16.3515 6.17188Z" fill="#EE6400"/>
<path d="M6.1529 29.715H16.3507V26.6294H6.1529V29.715ZM17.4058 31.7432H5.18634C4.65872 31.7432 4.1311 31.3024 4.1311 30.6858V25.5711C4.1311 25.0411 4.57048 24.5129 5.18634 24.5129H17.4058C17.9335 24.5129 18.4607 24.9537 18.4607 25.5711V30.6858C18.3728 31.3024 17.9335 31.7432 17.4058 31.7432Z" fill="#EE6400"/>
<path d="M6.1529 37.916H16.3507V34.8296H6.1529V37.916ZM17.4058 39.9434H5.18634C4.65872 39.9434 4.1311 39.5034 4.1311 38.886V33.7713C4.1311 33.2422 4.57048 32.7131 5.18634 32.7131H17.4058C17.9335 32.7131 18.4607 33.1548 18.4607 33.7713V38.886C18.3728 39.5034 17.9335 39.9434 17.4058 39.9434Z" fill="#EE6400"/>
<path d="M27.6047 41.9727H45.8904V6.17206H27.6047V41.9727ZM46.9446 44H26.5497C26.0222 44 25.4946 43.5592 25.4946 42.9418V5.20215C25.4946 4.67215 25.9341 4.14388 26.5497 4.14388H46.9446C47.4721 4.14388 47.9997 4.58469 47.9997 5.20215V43.031C47.9125 43.5592 47.4721 44 46.9446 44Z" fill="#EE6400"/>
<path d="M32.6159 4.1437H40.7913V2.11552H32.6159V4.1437ZM41.8464 6.17188H31.6481C31.1205 6.17188 30.593 5.73022 30.593 5.11363V1.05813C30.593 0.528123 31.0334 -0.000118979 31.6481 -0.000118979H41.8464C42.3739 -0.000118979 42.9006 0.440664 42.9006 1.05813V5.11363C42.8134 5.73022 42.3739 6.17188 41.8464 6.17188Z" fill="#EE6400"/>
<path d="M31.6479 13.402H41.8462V10.3156H31.6479V13.402ZM42.8132 15.4302H30.5928C30.0661 15.4302 29.5386 14.9894 29.5386 14.3719V9.25816C29.5386 8.72903 29.9781 8.19991 30.5928 8.19991H42.8132C43.3407 8.19991 43.8674 8.63982 43.8674 9.25816V14.3719C43.8674 14.9894 43.4279 15.4302 42.8132 15.4302Z" fill="#EE6400"/>
<path d="M31.6479 21.5153H41.8462V18.4288H31.6479V21.5153ZM42.8132 23.5435H30.5928C30.0661 23.5435 29.5386 23.1027 29.5386 22.4852V17.3706C29.5386 16.8414 29.9781 16.3123 30.5928 16.3123H42.8132C43.3407 16.3123 43.8674 16.754 43.8674 17.3706V22.4852C43.8674 23.1027 43.4279 23.5435 42.8132 23.5435Z" fill="#EE6400"/>
<path d="M31.6479 29.715H41.8462V26.6294H31.6479V29.715ZM42.8132 31.7432H30.5928C30.0661 31.7432 29.5386 31.3024 29.5386 30.6858V25.5711C29.5386 25.0411 29.9781 24.5129 30.5928 24.5129H42.8132C43.3407 24.5129 43.8674 24.9537 43.8674 25.5711V30.6858C43.8674 31.3024 43.4279 31.7432 42.8132 31.7432Z" fill="#EE6400"/>
<path d="M31.6479 37.916H41.8462V34.8296H31.6479V37.916ZM42.8132 39.9434H30.5928C30.0661 39.9434 29.5386 39.5034 29.5386 38.886V33.7713C29.5386 33.2422 29.9781 32.7131 30.5928 32.7131H42.8132C43.3407 32.7131 43.8674 33.1548 43.8674 33.7713V38.886C43.8674 39.5034 43.4279 39.9434 42.8132 39.9434Z" fill="#EE6400"/>
<path d="M17.4058 23.5435H5.18634C4.65872 23.5435 4.1311 23.1027 4.1311 22.4852C4.1311 21.9561 4.57048 21.4269 5.18634 21.4269H17.4058C17.9335 21.4269 18.4607 21.8686 18.4607 22.4852C18.3728 23.1027 17.9335 23.5435 17.4058 23.5435Z" fill="#EE6400"/>
<path d="M17.4058 20.5449H5.18634C4.65872 20.5449 4.1311 20.1041 4.1311 19.4867C4.1311 18.9575 4.57048 18.4284 5.18634 18.4284H17.4058C17.9335 18.4284 18.4607 18.8692 18.4607 19.4867C18.3728 20.0158 17.9335 20.5449 17.4058 20.5449Z" fill="#EE6400"/>
<path d="M17.4058 17.4585H5.18634C4.65872 17.4585 4.1311 17.0177 4.1311 16.4011C4.1311 15.8711 4.57048 15.3429 5.18634 15.3429H17.4058C17.9335 15.3429 18.4607 15.7828 18.4607 16.4011C18.4607 17.0177 17.9335 17.4585 17.4058 17.4585Z" fill="#EE6400"/>
<path d="M17.4058 14.3721H5.18634C4.65872 14.3721 4.1311 13.9313 4.1311 13.3138C4.1311 12.7856 4.57048 12.2556 5.18634 12.2556H17.4058C17.9335 12.2556 18.4607 12.6964 18.4607 13.3138C18.3728 13.9313 17.9335 14.3721 17.4058 14.3721Z" fill="#EE6400"/>
</svg>
