<svg width="41" height="44" viewBox="0 0 41 44" fill="none" xmlns="http://www.w3.org/2000/svg">
<path d="M21.644 18.0321C14.9511 18.0321 9.56172 23.3811 9.56172 30.024C9.56172 36.6668 14.9511 42.0159 21.644 42.0159C28.3369 42.0159 33.7263 36.6668 33.7263 30.024C33.7263 23.3811 28.3369 18.0321 21.644 18.0321ZM21.644 44.0002C13.9079 44.0002 7.56238 37.7022 7.56238 30.024C7.56238 22.3457 13.9079 16.0477 21.644 16.0477C29.3801 16.0477 35.7256 22.3457 35.7256 30.024C35.7256 37.7022 29.3801 44.0002 21.644 44.0002Z" fill="#142637"/>
<path d="M21.642 18.8947C20.4247 18.8947 19.2953 20.0165 18.3391 21.828C17.2959 23.9844 16.6872 26.8314 16.6872 29.9376C16.6872 33.0438 17.2959 35.8907 18.3391 38.0471C19.2953 39.9459 20.5118 40.9813 21.642 40.9813C22.7723 40.9813 23.9888 39.8595 24.945 38.0471C25.9882 35.8907 26.5969 33.0438 26.5969 29.9376C26.5969 26.8314 25.9882 23.9844 24.945 21.828C23.9888 20.0165 22.8594 18.8947 21.642 18.8947ZM21.642 43.0513C19.6427 43.0513 17.8175 41.5846 16.5139 38.9961C15.2966 36.5804 14.6879 33.3886 14.6879 30.024C14.6879 26.6593 15.3837 23.4676 16.5139 21.0511C17.8175 18.377 19.6427 16.9967 21.642 16.9967C23.6414 16.9967 25.4666 18.4634 26.771 21.0511C27.9875 23.4676 28.5962 26.6593 28.5962 30.024C28.5962 33.3886 27.9004 36.5804 26.771 38.9961C25.4666 41.5846 23.6414 43.0513 21.642 43.0513Z" fill="#142637"/>
<path d="M34.7681 31.4036H9.38618C8.86457 31.4036 8.34296 30.9723 8.34296 30.3682C8.34296 29.7649 8.77749 29.3328 9.38618 29.3328H34.7681C35.2897 29.3328 35.8113 29.7649 35.8113 30.3682C35.8113 30.9723 35.2897 31.4036 34.7681 31.4036Z" fill="#142637"/>
<path d="M32.5978 24.072H11.0404C10.5188 24.072 9.99722 23.6407 9.99722 23.0366C9.99722 22.5189 10.4318 22.0012 11.0404 22.0012H32.5978C33.1194 22.0012 33.641 22.4333 33.641 23.0366C33.641 23.6407 33.2056 24.072 32.5978 24.072Z" fill="#142637"/>
<path d="M32.5978 37.7036H10.4317C9.91008 37.7036 9.38849 37.2723 9.38849 36.6682C9.38849 36.0641 9.823 35.6337 10.4317 35.6337H32.5978C33.1194 35.6337 33.641 36.0641 33.641 36.6682C33.641 37.2723 33.2056 37.7036 32.5978 37.7036Z" fill="#142637"/>
<path d="M23.7326 9.49119C24.4284 10.2682 25.4707 10.785 26.5139 10.785C27.383 10.785 28.1658 10.5266 28.7745 9.92331C29.9039 8.97347 30.1643 7.33483 30.3385 5.69529C30.4256 4.83274 30.5997 3.88376 30.8601 3.10678C30.773 3.10678 30.5997 3.10678 30.4256 3.10678C29.9039 3.10678 29.3823 3.02121 28.7745 3.02121C27.2959 3.02121 25.6449 3.19318 24.0801 4.48786C23.3852 5.09199 22.9498 5.95368 22.8636 6.90352C22.8636 7.8525 23.1239 8.71507 23.7326 9.49119ZM26.5139 12.6838C24.862 12.6838 23.2981 11.9933 22.2549 10.6995C21.2988 9.57763 20.8642 8.11094 20.9504 6.64426C21.0375 5.17758 21.7333 3.79734 22.8636 2.84836C24.9491 1.1224 27.2097 0.950387 28.8607 0.950387C29.4694 0.950387 30.0781 0.950408 30.5997 1.03683C31.1213 1.03683 31.5558 1.12241 31.9033 1.12241C32.1637 1.12241 32.4249 1.12241 32.599 1.12241C33.0336 1.03683 33.4681 1.29524 33.6422 1.72737C33.8155 2.15779 33.6422 2.67548 33.2939 2.93476C32.6861 3.36604 32.512 4.65989 32.2507 5.95372C31.9904 7.85253 31.6429 10.0089 29.991 11.4756C29.0349 12.2526 27.8175 12.6838 26.5139 12.6838Z" fill="#142637"/>
<path d="M21.4674 17.7737C21.0329 17.7737 20.5984 17.4288 20.5113 16.9111C19.9906 13.8049 20.9458 10.6996 23.4668 7.85263C25.292 5.78182 27.2913 4.48797 27.3784 4.48797C27.8129 4.22869 28.5087 4.31514 28.7699 4.83284C29.0303 5.26412 28.9432 5.9538 28.4216 6.21308C28.3345 6.29951 21.4674 10.6131 22.5107 16.5663C22.5977 17.084 22.2503 17.6017 21.7287 17.6872C21.5545 17.7737 21.5545 17.7737 21.4674 17.7737Z" fill="#142637"/>
<path d="M12.8645 11.5624C13.0386 11.9937 13.3861 12.4249 13.8206 12.6842C14.1689 12.8562 14.5155 12.9426 14.8638 12.9426C15.5587 12.9426 16.2545 12.5978 16.602 11.9072C16.8632 11.3904 16.9503 10.8727 16.7761 10.2685C16.602 9.75084 16.2545 9.31956 15.82 9.06028C15.2113 8.71543 14.6035 8.629 13.9948 8.629C13.4732 8.629 12.8645 8.71543 12.3429 8.80185C12.6041 9.31955 12.6903 9.75082 12.6903 10.3549C12.6903 10.7854 12.6903 11.1311 12.8645 11.5624ZM14.8638 14.927C14.1689 14.927 13.4732 14.755 12.8645 14.4093C11.9954 13.978 11.2997 13.1155 10.9522 12.1665C10.7781 11.4759 10.691 10.9582 10.691 10.527C10.691 10.1821 10.691 10.0093 10.6048 9.83726C10.5177 9.75084 10.3435 9.49155 9.64778 9.23313C9.21411 9.06028 8.9529 8.62901 9.03997 8.11131C9.12619 7.59361 9.47449 7.33516 9.99609 7.33516C10.3435 7.33516 10.8652 7.16233 11.2997 7.0759C12.0825 6.9039 12.9516 6.64462 13.9077 6.64462C14.9509 6.64462 15.9071 6.90388 16.7761 7.33516C17.7322 7.85286 18.428 8.71541 18.6884 9.75082C18.9496 10.7854 18.8625 11.9072 18.2538 12.8562C17.6452 14.1509 16.2545 14.927 14.8638 14.927Z" fill="#142637"/>
<path d="M20.9491 15.7021C20.6016 15.7021 20.2542 15.5293 20.08 15.1844C19.211 13.6313 16.6029 12.8544 15.7339 12.6824C15.2123 12.5959 14.8648 12.0782 14.9519 11.4741C15.0381 10.9564 15.5597 10.6116 16.1684 10.698C16.3426 10.698 20.3413 11.5605 21.9052 14.1491C22.1664 14.6668 21.9923 15.2709 21.5578 15.5293C21.2974 15.6157 21.1232 15.7021 20.9491 15.7021Z" fill="#142637"/>
<path d="M39.2889 44.0002H3.04123C2.51963 44.0002 1.99802 43.569 1.99802 42.9648C1.99802 42.4471 2.43255 41.9294 3.04123 41.9294H39.2889C39.8105 41.9294 40.3321 42.3607 40.3321 42.9648C40.245 43.569 39.8105 44.0002 39.2889 44.0002Z" fill="#142637"/>
<path d="M3.04169 16.9979C2.52009 16.9979 1.99847 17.4292 1.99847 18.0333C1.99847 18.551 2.43301 19.0687 3.04169 19.0687C3.5633 19.0687 4.08491 18.6366 4.08491 18.0333C3.99783 17.4292 3.5633 16.9979 3.04169 16.9979ZM3.04169 20.9658C1.39066 20.9658 0 19.5864 0 17.9469C0 16.3074 1.39066 14.9271 3.04169 14.9271C4.69359 14.9271 6.08425 16.3074 6.08425 17.9469C5.99717 19.672 4.69359 20.9658 3.04169 20.9658Z" fill="#142637"/>
<path d="M11.0418 1.98459C10.5202 1.98459 9.99854 2.41588 9.99854 3.02C9.99854 3.53771 10.4331 4.05542 11.0418 4.05542C11.5634 4.05542 12.085 3.62328 12.085 3.02C12.085 2.5023 11.6504 1.98459 11.0418 1.98459ZM11.0418 6.03979C9.38987 6.03979 7.99921 4.65868 7.99921 3.02C7.99921 1.38047 9.38987 0.000215054 11.0418 0.000215054C12.6928 0.000215054 14.0843 1.38047 14.0843 3.02C14.0843 4.65868 12.7799 6.03979 11.0418 6.03979Z" fill="#142637"/>
</svg>
