<svg width="50" height="50" viewBox="0 0 50 50" fill="none" xmlns="http://www.w3.org/2000/svg">
<path d="M25.1353 40.8146C25.4067 40.8146 25.5877 40.9061 25.7678 41.089L32.724 47.0236L34.2587 37.9835C34.3492 37.4365 34.8008 37.0707 35.2523 37.0707H44.2862L39.7688 29.1273C39.4982 28.6708 39.5887 28.122 40.0403 27.757L46.9956 21.8224L38.5046 18.7178C38.0531 18.5349 37.7825 18.0793 37.8721 17.5305L39.4078 8.4913L30.9168 11.5958C30.4653 11.7788 29.9232 11.5958 29.6518 11.1385L25.1353 3.19511L20.6188 11.1385C20.3482 11.5958 19.8061 11.7788 19.3546 11.5958L10.8636 8.4913L12.4889 17.5305C12.5794 18.0793 12.3079 18.5349 11.8573 18.7178L3.18536 21.8224L10.1406 27.757C10.5017 28.122 10.5922 28.6708 10.4112 29.1273L5.8947 37.0707H14.9286C15.4697 37.0707 15.8317 37.4365 15.9222 37.9835L17.5474 47.0236L24.5036 41.089C24.6837 40.9061 24.8647 40.8146 25.1353 40.8146ZM33.4461 49.9452C33.1755 49.9452 32.9945 49.8547 32.8136 49.6709L25.1353 43.1883L17.4579 49.7632C17.1864 50.0367 16.7348 50.0367 16.4642 49.9452C16.1023 49.8547 15.8317 49.4888 15.8317 49.1238L14.0255 39.1708H3.99798C3.63691 39.1708 3.27495 38.9879 3.09487 38.6229C2.91388 38.2579 2.91388 37.8921 3.09487 37.5271L8.06292 28.7614L0.384615 22.2788C0.114038 22.0053 -0.0669469 21.6394 0.0235442 21.2745C0.114035 20.9095 0.384607 20.6351 0.65608 20.453L10.0501 16.9835L8.42487 7.0296C8.33348 6.66463 8.51447 6.30056 8.78594 6.02615C9.05652 5.75174 9.50808 5.75174 9.77956 5.8432L19.1736 9.31363L24.1417 0.547012C24.3226 0.182037 24.6837 0 25.0457 0C25.4067 0 25.7678 0.182037 25.9488 0.547012L30.9168 9.31363L40.3109 5.8432C40.6728 5.75174 41.0339 5.75174 41.3054 6.02615C41.5759 6.30056 41.7569 6.66463 41.6664 7.0296L39.9498 16.9835L49.3447 20.453C49.7058 20.5436 49.9764 20.9095 49.9764 21.2745C50.0669 21.6394 49.8868 22.0053 49.6153 22.2788L41.937 28.7614L46.9051 37.5271C47.086 37.8921 47.086 38.2579 46.9051 38.6229C46.725 38.9879 46.3639 39.1708 46.002 39.1708H36.2468L34.5302 49.1238C34.4397 49.4888 34.1691 49.7632 33.8977 49.9452C33.7176 49.9452 33.6271 49.9452 33.4461 49.9452Z" fill="white"/>
<path d="M25.1351 15.8877C19.625 15.8877 15.199 20.3616 15.199 25.9304C15.199 31.501 19.625 35.9748 25.1351 35.9748C30.6461 35.9748 35.0721 31.501 35.0721 25.9304C35.0721 20.453 30.6461 15.8877 25.1351 15.8877ZM25.1351 38.1665C18.5418 38.1665 13.1213 32.6874 13.1213 26.0227C13.1213 19.3572 18.5418 13.879 25.1351 13.879C31.7293 13.879 37.1498 19.3572 37.1498 26.0227C37.1498 32.6874 31.7293 38.1665 25.1351 38.1665Z" fill="white"/>
<path d="M23.4204 33.875C23.1498 33.875 22.9679 33.7835 22.7879 33.6015C22.3363 33.2365 22.2458 32.5971 22.6974 32.1407L26.4917 27.5753H22.4268C22.0657 27.5753 21.7038 27.3924 21.5237 27.0265C21.3427 26.6616 21.3427 26.2966 21.5237 25.9307L25.6782 18.5352C25.9497 17.9873 26.5822 17.8959 27.1243 18.1703C27.6663 18.4447 27.7559 19.0831 27.4853 19.6311L24.233 25.4752H28.7495C29.1106 25.4752 29.563 25.7487 29.6526 26.1146C29.8336 26.4795 29.7431 26.936 29.4725 27.2104L24.233 33.5109C24.052 33.7835 23.7815 33.875 23.4204 33.875Z" fill="white"/>
<path d="M27.6656 24.3794C27.3942 24.3794 27.1236 24.2879 26.9426 24.1059C26.7616 23.9229 26.6711 23.6485 26.6711 23.375C26.6711 23.1006 26.7616 22.8271 26.9426 22.6451C27.1236 22.4612 27.3942 22.3707 27.6656 22.3707C27.9362 22.3707 28.2077 22.4612 28.3878 22.6451C28.5679 22.8271 28.6593 23.1006 28.6593 23.375C28.6593 23.6485 28.5679 23.9229 28.3878 24.1059C28.2077 24.2879 27.9362 24.3794 27.6656 24.3794Z" fill="white"/>
<path d="M22.4267 30.7703C22.1552 30.7703 21.8847 30.6797 21.7037 30.4968C21.5236 30.3138 21.4331 30.0403 21.4331 29.7668C21.4331 29.4924 21.5236 29.218 21.7037 29.036C21.8847 28.853 22.1552 28.7616 22.4267 28.7616C22.6973 28.7616 22.9679 28.853 23.1497 29.036C23.3298 29.218 23.4203 29.4924 23.4203 29.7668C23.4203 30.0403 23.3298 30.3138 23.1497 30.4968C22.9679 30.5882 22.6973 30.7703 22.4267 30.7703Z" fill="white"/>
</svg>
