<svg width="24" height="24" viewBox="0 0 24 24" fill="none" xmlns="http://www.w3.org/2000/svg">
<path d="M23.4311 11.6224C23.1454 11.6224 22.9075 11.384 22.8598 11.0988C22.431 5.76667 18.2418 1.5773 12.8623 1.10084C12.5766 1.05315 12.3386 0.815164 12.3386 0.529481C12.3863 0.243799 12.6243 0.00627804 12.91 0.00627804C15.719 0.243795 18.3849 1.48191 20.4318 3.48121C22.431 5.48052 23.6691 8.14703 23.9071 11.0034C24.0024 11.2891 23.8117 11.5747 23.4311 11.6224C23.4783 11.6224 23.4783 11.6224 23.4311 11.6224Z" fill="white"/>
<path d="M0.576465 11.6224C0.529247 11.6224 0.529247 11.6224 0.576465 11.6224C0.243577 11.5747 0.00512695 11.3368 0.00512695 11.0034C0.243578 8.19425 1.48116 5.52868 3.48085 3.48121C5.48007 1.43422 8.146 0.243795 11.0022 0.00627804C11.2879 -0.0418863 11.5736 0.196579 11.5736 0.529481C11.6213 0.815164 11.3833 1.10084 11.0499 1.10084C5.71805 1.52913 1.52886 5.71897 1.05243 11.0988C1.10012 11.384 0.862134 11.6224 0.576465 11.6224Z" fill="white"/>
<path d="M12.9539 24C12.7636 24 12.5728 23.9052 12.4779 23.7148C12.3825 23.5241 12.3825 23.2862 12.5251 23.0958L14.0012 21.2386C14.1914 21.0006 14.5248 20.9534 14.7628 21.1437C15.0008 21.3345 15.0484 21.6679 14.8582 21.9059L14.2391 22.7147C18.9048 21.7152 22.4749 17.8114 22.856 12.9076C22.9037 12.6219 23.1416 12.3835 23.475 12.3835C23.7607 12.4316 23.9986 12.6696 23.9986 13.003C23.7607 15.8116 22.5226 18.4776 20.5234 20.5251C18.476 22.5244 15.8101 23.7621 12.9539 24Z" fill="white"/>
<path d="M11.0508 24C8.19408 23.7621 5.52814 22.5244 3.48171 20.5251C1.48202 18.5254 0.244436 15.8593 0.00598501 13.003C-0.0412331 12.7173 0.196273 12.4316 0.530105 12.4316C0.815775 12.3835 1.10098 12.6219 1.10098 12.9548C1.52972 18.2869 5.71891 22.4768 11.0985 22.9527C11.3841 23.0004 11.6221 23.239 11.6221 23.5719C11.5744 23.7621 11.3364 24 11.0508 24Z" fill="white"/>
<path d="M2.00442 15.1445C1.86134 15.1445 1.67106 15.0973 1.57568 14.9547L0.147802 13.2878C-0.0424869 13.0503 -0.0424869 12.7169 0.19502 12.5262C0.433472 12.3359 0.76636 12.3359 0.957121 12.5739L2.385 14.2403C2.57529 14.4783 2.57529 14.8116 2.33778 15.0019C2.2424 15.0973 2.0998 15.1445 2.00442 15.1445Z" fill="white"/>
<path d="M23.4266 11.6224C23.2835 11.6224 23.0932 11.5747 22.9979 11.4321L21.57 9.76574C21.3792 9.52775 21.3792 9.19438 21.6177 9.00361C21.8557 8.81331 22.189 8.81331 22.3788 9.05177L23.8072 10.7177C23.9979 10.9557 23.9979 11.2891 23.76 11.4794C23.7123 11.5747 23.5692 11.6224 23.4266 11.6224Z" fill="white"/>
<path d="M9.43008 2.625C9.28748 2.625 9.09671 2.57731 9.00181 2.43423C8.81152 2.19624 8.81152 1.86286 9.04902 1.67257L10.7154 0.244158C10.9538 0.0538604 11.2867 0.0538609 11.477 0.291851C11.6677 0.52984 11.6677 0.863215 11.4293 1.05351L9.76344 2.48192C9.71575 2.57731 9.57268 2.625 9.43008 2.625Z" fill="white"/>
<path d="M11.9546 4.48113C7.86036 4.48113 4.5277 7.81393 4.5277 11.9084C4.5277 16.0029 7.86036 19.3828 11.9546 19.3828C16.0484 19.3828 19.3811 16.0501 19.3811 11.9556C19.3811 7.86115 16.0484 4.48113 11.9546 4.48113ZM11.9546 20.4779C7.24133 20.4779 3.3855 16.6214 3.3855 11.9084C3.3855 7.19488 7.24133 3.33888 11.9546 3.33888C16.6675 3.33888 20.5238 7.19488 20.5238 11.9084C20.4761 16.6691 16.6675 20.4779 11.9546 20.4779Z" fill="white"/>
<path d="M12.0016 8.95655C11.8113 9.24223 11.5734 9.52792 11.3831 9.81313C10.6691 10.8133 9.90702 11.8129 9.90702 12.6223C9.90702 13.9553 10.8589 15.0026 12.0016 15.0026C13.1443 15.0026 14.0962 13.9553 14.0962 12.6223C14.0962 11.8129 13.3351 10.8133 12.6683 9.86129C12.4304 9.52792 12.1924 9.24223 12.0016 8.95655ZM12.0016 16.0977C10.2404 16.0977 8.8125 14.5266 8.8125 12.6223C8.8125 11.4795 9.66904 10.2896 10.4784 9.19454C10.8589 8.67087 11.24 8.1472 11.5257 7.67122C11.621 7.48092 11.8113 7.38554 12.0016 7.38554C12.1924 7.38554 12.3827 7.48092 12.478 7.67122C12.7637 8.19442 13.1443 8.71856 13.5253 9.19454C14.3347 10.2896 15.1912 11.4323 15.1912 12.6223C15.1912 14.5266 13.7633 16.0977 12.0016 16.0977Z" fill="white"/>
</svg>
