<svg width="18" height="24" viewBox="0 0 18 24" fill="none" xmlns="http://www.w3.org/2000/svg">
<path d="M10.8514 18.4717C10.0212 18.4717 9.01048 18.2023 8.10823 17.8877C8.0361 17.8877 8.00001 17.8426 7.96378 17.8426C7.74716 17.7525 7.60285 17.4833 7.67503 17.2136C7.74716 16.944 7.96378 16.7638 8.18041 16.8538C8.21663 16.8538 8.28877 16.8989 8.32471 16.8989C8.72172 17.034 9.4438 17.2587 10.1655 17.3933C11.2484 17.5733 11.5731 17.3482 11.6816 17.2587C11.7174 17.2136 11.7897 17.1687 11.7536 16.8538C11.7174 16.5843 11.862 16.3149 12.1148 16.2694C12.3314 16.2245 12.548 16.4046 12.5838 16.7192C12.6561 17.3933 12.4395 17.7982 12.2591 18.0228C11.8982 18.3375 11.4289 18.4717 10.8514 18.4717Z" fill="white"/>
<path d="M6.55477 20.2696C7.31271 20.2696 7.92645 20.5388 8.50372 20.764C9.11735 21.0332 9.659 21.2578 10.4527 21.2578C10.5973 21.2578 10.7416 21.2578 10.85 21.2578C11.5356 21.1683 13.1598 20.2696 14.6398 19.1007C16.589 17.573 17.2023 16.5389 17.1661 16.2691C17.1303 15.7752 16.5167 15.5951 16.1197 15.5951C16.0474 15.5951 15.9754 15.5951 15.9031 15.5951C14.8202 15.7752 13.196 16.9437 12.33 17.8873C12.1854 18.067 11.9688 18.067 11.8245 17.9319C11.6802 17.7978 11.6079 17.5276 11.6802 17.3029C11.716 17.2133 11.716 17.1232 11.6802 16.9881C11.6079 16.4488 10.9582 15.9094 9.87558 15.5051C8.72034 15.1008 7.42107 14.9657 6.591 14.9657C6.19384 14.9657 5.86899 15.0112 5.65252 15.0557C5.39981 15.1008 4.42525 15.5051 3.84787 15.7302L5.18319 20.5388C5.6886 20.3142 6.12181 20.2696 6.55477 20.2696ZM10.4527 22.292C9.55053 22.292 8.86479 22.0219 8.25119 21.7527C7.70983 21.5281 7.20445 21.3033 6.55477 21.3033C6.08558 21.3033 5.61643 21.3929 5.03888 21.663C4.82226 21.7527 4.56973 21.6176 4.49756 21.3484L2.90925 15.5951C2.83722 15.3254 2.94548 15.0558 3.12587 14.9657C3.55894 14.741 5.11105 14.112 5.4359 14.022C5.6886 13.9324 6.08558 13.9324 6.55477 13.9324C7.45716 13.9324 8.86479 14.0675 10.0922 14.5164C11.3913 14.9657 12.1854 15.6402 12.4381 16.4943C13.4487 15.5951 14.7844 14.7865 15.7946 14.6064C15.9031 14.6064 16.0112 14.5614 16.1197 14.5614C16.9857 14.5614 17.9243 15.0557 17.9967 16.1796C18.0325 16.7189 17.7439 17.3479 17.0942 18.112C16.589 18.6963 15.9031 19.3253 15.1091 19.9548C13.7373 21.0332 11.8968 22.202 10.9582 22.292C10.7777 22.2471 10.6335 22.292 10.4527 22.292Z" fill="white"/>
<path d="M0.924553 16.315L2.7292 22.8319L4.71452 21.9778L2.90959 15.461L0.924553 16.315ZM2.47663 24.0004C2.40446 24.0004 2.36827 24.0004 2.2961 23.9553C2.18788 23.9107 2.1157 23.7757 2.07947 23.6406L0.0222676 16.135C-0.049868 15.8653 0.0582099 15.551 0.274832 15.461L3.05404 14.2921C3.27066 14.2021 3.52333 14.3372 3.5955 14.6069L5.65285 22.1124C5.72499 22.3821 5.61677 22.6968 5.40015 22.7865L2.62094 23.9553C2.5488 24.0004 2.51272 24.0004 2.47663 24.0004Z" fill="white"/>
<path d="M2.2604 17.6631C2.15204 17.6631 2.04378 17.618 1.97165 17.528C1.89948 17.4385 1.86328 17.3033 1.86328 17.1687C1.86328 17.0341 1.89948 16.899 1.97165 16.809C2.04378 16.7193 2.15204 16.6743 2.2604 16.6743C2.36866 16.6743 2.47703 16.7193 2.5492 16.809C2.62133 16.899 2.65742 17.0341 2.65742 17.1687C2.65742 17.3033 2.62133 17.4385 2.5492 17.528C2.47703 17.618 2.36866 17.6631 2.2604 17.6631Z" fill="white"/>
<path d="M8.6137 6.60638C8.46925 6.87608 8.28885 7.14533 8.1444 7.41547C7.60294 8.35919 7.02553 9.3029 7.02553 10.067C7.02553 11.3254 7.74725 12.3141 8.6137 12.3141C9.47968 12.3141 10.2018 11.3254 10.2018 10.067C10.2018 9.3029 9.62431 8.35919 9.11883 7.46005C8.93843 7.1908 8.75804 6.87608 8.6137 6.60638ZM8.6137 13.3479C7.27824 13.3479 6.19531 11.8648 6.19531 10.067C6.19531 8.98818 6.845 7.86437 7.45863 6.83105C7.74725 6.33668 8.03618 5.84187 8.25266 5.39297C8.3248 5.21288 8.46925 5.12327 8.6137 5.12327C8.75804 5.12327 8.90249 5.21288 8.97466 5.39297C9.19114 5.88734 9.47968 6.38126 9.76858 6.83105C10.3822 7.86437 11.0319 8.94316 11.0319 10.067C11.0319 11.8648 9.94901 13.3479 8.6137 13.3479Z" fill="white"/>
<path d="M11.6453 1.48332C11.5369 1.708 11.3926 1.88765 11.2845 2.11232C10.8151 2.87638 10.3458 3.68547 10.3458 4.31491C10.3458 5.34868 10.9233 6.15732 11.6453 6.15732C12.367 6.15732 12.9445 5.34868 12.9445 4.31491C12.9445 3.68547 12.4755 2.87638 12.0062 2.11232C11.8981 1.88765 11.7896 1.66297 11.6453 1.48332ZM11.6453 7.19153C10.4539 7.19153 9.51562 5.88807 9.51562 4.31491C9.51562 3.37075 10.0573 2.38246 10.5986 1.48332C10.8513 1.079 11.1037 0.674682 11.2483 0.269468C11.3203 0.0898194 11.4649 0.000216007 11.6092 0.000216007C11.7534 0.000216007 11.8981 0.0898194 11.97 0.269468C12.1505 0.674682 12.4032 1.079 12.6559 1.52835C13.1972 2.42704 13.7385 3.37075 13.7385 4.31491C13.8108 5.88807 12.8364 7.19153 11.6453 7.19153Z" fill="white"/>
</svg>
